<svg role="img" viewBox="0 0 24 24" xmlns="http://www.w3.org/2000/svg" fill="#000"><title>GitHub</title><path fill-rule="evenodd" clip-rule="evenodd" d="M12 .296C5.372.296 0 5.668 0 12.296c0 5.292 3.438 9.791 8.207 11.386.6.111.82-.26.82-.577 0-.285-.011-1.044-.017-2.05-3.338.725-4.042-1.61-4.042-1.61-.546-1.385-1.333-1.754-1.333-1.754-1.09-.745.083-.73.083-.73 1.205.085 1.84 1.237 1.84 1.237 1.07 1.833 2.807 1.304 3.49.996.108-.774.42-1.304.762-1.603-2.665-.304-5.466-1.333-5.466-5.933 0-1.31.47-2.38 1.236-3.22-.123-.304-.536-1.525.116-3.176 0 0 1.008-.322 3.3 1.23a11.47 11.47 0 0 1 3-.405c1.02.005 2.043.138 3 .405 2.29-1.552 3.297-1.23 3.297-1.23.653 1.65.24 2.872.118 3.176.77.84 1.234 1.91 1.234 3.22 0 4.61-2.805 5.626-5.476 5.923.432.373.823 1.11.823 2.237 0 1.617-.014 2.92-.014 3.32 0 .32.216.693.826.576C20.565 22.084 24 17.587 24 12.296 24 5.668 18.628.296 12 .296Z"/></svg>
