<?xml version="1.0" encoding="UTF-8"?>
<svg width="510" height="600" version="1.1" xmlns="http://www.w3.org/2000/svg">
 <g>
  <path d="m14.435 13.323h481.95v182.07c0 83.208-31.307 260.34-238.92 392.16 0 0-225.74-93.918-243.04-392.16z" fill="#a51c30"/>
  <path d="m172.91 300.57c-1.2099-0.0494-2.2598 0.55447-3.1056 1.2873-1.6484 1.4286-2.6355 3.4031-2.6872 3.5079-1.8386 2.574-5.7075 3.222-9.2203 3.1217-3.5126-0.1003-6.5329-0.90113-6.5329-0.90113l-0.1931-0.0494-0.19311 0.0661c-5.05 1.6833-7.2979 3.831-8.2225 5.68-0.46225 0.92454-0.57927 1.7604-0.57927 2.3654 0 0.47455 0.0601 0.68383 0.0966 0.82058v18.875c-0.18397 1.0406-0.66591 1.6776-1.3356 2.1241-0.6792 0.45313-1.5845 0.69285-2.4941 0.78842-1.8192 0.19104-3.5883-0.19264-3.5883-0.19264h-0.0163c-6.3347-1.267-10.679 0.21731-13.388 2.0596-2.6648 1.8121-3.7292 3.9198-3.7653 3.9904-2.71 3.6677-0.91718 8.8179-0.91718 8.8179v0.0318c0.17549 0.46798 0.37915 0.91144 0.61147 1.3194 3e-3 8e-3 0.0322 0.0963 0.0322 0.0963 2.4716 6.591 11.537 6.5811 11.537 6.5811 3.2954 2.4716 9.0591 0.82058 9.0591 0.82058 1.6933 0 2.6778 0.70356 3.2826 1.593 0.30046 1.2142 0.16092 2.4297 0.16092 2.4297l-0.0163 0.14487 0.0322 0.12856c0.0552 0.2193 0.16939 1.3627 0.22523 2.9286 0.056 1.5659 0.0774 3.6272 0.0966 6.0179 0.0386 4.7817 0.0191 10.86-0.0322 16.831-0.10297 11.942-0.30575 23.477-0.30575 23.477 0 4.029-0.78842 6.3881-0.78842 6.3881l-0.0322 0.0963v0.11184c0 0.20099-0.0659 0.30408-0.28967 0.48278-0.22352 0.17871-0.61731 0.37493-1.1424 0.51491-1.0502 0.2802-2.5563 0.38647-4.0708 0.38647-3.0294 0-6.0983-0.40203-6.0983-0.40203l-0.0808-0.0159-0.0808 0.0159c-8.5791 0.85787-11.235 8.5588-11.264 8.6408v0.0159c-0.68 1.5989-0.62061 3.2197-0.16091 4.6826 0.23069 0.73405 0.56573 1.4344 0.94937 2.0919 1.5314 3.7397 5.6159 6.6615 5.6159 6.6615 0 1.6477 15.657 2.462 15.657 2.462 0.94893 0.23722 1.5946 0.90432 2.0757 1.7056 0.0478 0.14646 0.10547 0.28656 0.14484 0.43414 0.38499 1.4436 0.38615 2.7998 0.38615 2.7998-0.11726 0.43992-0.16231 0.93217-0.19312 1.6413-0.0346 0.79996-0.0519 1.7875-0.0322 2.8964 0.0386 2.2179 0.16709 4.9313 0.32179 7.563 0.30954 5.2625 0.7241 10.202 0.7241 10.202l0.0163 0.0318v0.0319c0.0876 0.52561 0.34333 0.97942 0.65974 1.3838 1.7e-4 2e-3 0.0163 0.14487 0.0163 0.14487 0.82388 4.9433 16.477 3.2987 16.477 3.2987s54.866-1.2664 69.692-1.0298c2.1176 0.0318 3.4145 0.10627 3.6205 0.20935 1.6477 0 5.7767-0.82054 5.7767-0.82054l5.7604 4.1194c2.3171 1.8022 4.7176 2.3161 6.919 2.1722 0.44028-0.0239 0.881-0.084 1.3034-0.16079 4.2241-0.76454 7.434-3.6687 7.434-3.6687l8.2388-1.6413c1.6477 0 68.386-0.82058 68.386-0.82058 5.7672 1.6477 8.2388-0.83673 8.2388-0.83673l10.7-0.82054c0.41194 0 0.79649-0.0318 1.1586-0.0963 2.6173-0.47948 3.9639-2.5725 4.6663-4.6181 0.20936-0.40617 0.4295-0.81067 0.57927-1.2228 0.87331-2.4016 0.85281-4.763 0.85281-4.763v-13.935c0.13771-1.1022 0.39244-1.9633 0.67582-2.7355 1.5015-2.6476 3.6044-3.1056 3.6044-3.1056l9.8798-1.6574 4.956-2.462c1.9011-0.47535 2.9033-1.805 3.4757-3.4113 0.14647-0.22885 0.30289-0.44653 0.41835-0.69206 0.68307-1.4515 0.88502-3.142 0.88502-4.7467 0-3.2096-0.85282-6.1628-0.85282-6.1628l-0.0159-0.0657-0.0159-0.0661c-1.8038-3.6076-5.9646-5.0782-9.5582-5.7122-3.5937-0.63435-6.7582-0.41851-6.7582-0.41851h-0.0159c-3.9662 0.39642-5.4627-0.73898-6.1469-1.8505-0.68402-1.1116-0.53095-2.3171-0.53095-2.3171v-0.0494l0.8367-51.057c0.32517-1.9138 0.88147-3.438 1.4321-4.6826 0.64434-1.2324 1.1907-1.9792 1.1907-1.9792 2.4716 0.82384 10.7-1.6574 10.7-1.6574 4.7347-0.47376 6.7065-3.3765 7.563-5.7767 0.0756-0.1401 0.19104-0.2794 0.25751-0.41855 1.0856-2.2798 1.078-4.3797 1.0781-4.441 0.43976-3.2308-1.8068-5.9005-4.039-7.7075-2.2413-1.8144-4.5859-2.8642-4.5859-2.8642l-0.12895-0.0661h-11.569c-0.32079-0.0661-0.58105-0.23563-0.85281-0.59567-0.27781-0.36736-0.54277-0.91283-0.74014-1.5769-0.39483-1.328-0.57696-3.1214-0.62754-4.8915-0.1011-3.5405 0.30567-6.9994 0.30567-6.9994l0.0159-0.0494v-6.6249c0-3.2052-2.2886-5.4555-4.441-6.8549-2.1524-1.3994-4.2802-2.0274-4.2802-2.0274l-0.0967-0.0318h-14.691c-0.33234-0.55037-0.70252-1.0906-1.2551-1.4482-0.73027-0.47292-1.5749-0.82536-2.3814-1.0942-1.6131-0.53799-3.1056-0.73982-3.1056-0.73982-2.6857-0.8439-6.6778-0.83674-6.6778-0.83674h-0.20935l-0.17712 0.11303c-5.1292 3.551-14.128 5.0396-21.803 5.5514-7.6752 0.5116-14.015 0.11303-14.015 0.11303l-25.842-1.6734-0.22523 0.20935c0.0758-0.074-0.0879 0.0577-0.35403 0.14488-0.26611 0.0891-0.64828 0.19622-1.0781 0.29015-0.85963 0.18706-1.9527 0.36179-3.0251 0.5149-2.1448 0.30647-4.1998 0.51491-4.1998 0.51491l-0.41835 0.0318-0.14483 0.41851c-0.70993 2.1298-2.8642 2.8642-2.8642 2.8642l-2.2688 0.77198c-1.5056-1.2792-3.8539-2.2503-6.0824-2.9285-2.3517-0.71594-4.3041-1.1086-4.3928-1.1264-0.0163-8e-3 -0.033-0.0239-0.0486-0.0318-0.0783-0.0318-0.15701-0.0494-0.22523-0.0661-0.13652-0.0318-0.26603-0.0494-0.43443-0.0661-0.3368-0.0318-0.77007-0.041-1.3034-0.0494-1.0667-8e-3 -2.5243 0.0239-4.248 0.0824-3.4475 0.11621-7.9558 0.33791-12.438 0.59566-8.9568 0.5149-17.797 1.1413-17.813 1.1424-10.214 0.40864-17.113-1.2302-21.449-2.9446-4.3367-1.7145-6.0502-3.4435-6.0502-3.4435-1.0879-1.4856-2.2895-2.2053-3.4757-2.2528zm-0.0486 1.3516c0.72104 0.0318 1.5555 0.43335 2.5102 1.7701l0.0163 0.0318 0.0322 0.0494s1.9969 1.9623 6.517 3.7492c4.5198 1.787 11.614 3.4565 21.996 3.0412h0.0485s8.8426-0.62778 17.797-1.1424c4.4768-0.25712 8.9795-0.47948 12.406-0.59566 1.7133-0.0577 3.1714-0.09 4.1998-0.0824 0.51419 4e-3 0.91813 0.0239 1.1907 0.0494 0.11387 8e-3 0.18786 0.0239 0.24139 0.0318l0.0322 0.0318 0.19311 0.0494s2.0439 0.4004 4.3769 1.1103c2.3328 0.71017 4.9783 1.7924 6.002 2.8159l0.28967 0.29015 2.8642-0.94942s1.7579-1.0306 2.9447-2.8159c-0.91732 2.2295-3.17 2.9929-3.17 2.9929l-2.4619 1.6574c-2.4716-2.4716-10.717-4.1194-10.717-4.1194-0.82388-0.82384-36.253 1.6413-36.253 1.6413-20.597 0.82384-28.014-6.5811-28.014-6.5811-4.1194-5.7672-8.2388 2.4619-8.2388 2.4619-4.1194 5.7672-16.477 2.478-16.477 2.478-4.5596 1.5198-6.6006 3.3818-7.5467 4.956 0.0643-0.28737 0.1631-0.59976 0.33796-0.94934 0.71485-1.4297 2.6394-3.3547 7.3536-4.956 0.26436 0.0661 3.0182 0.79996 6.5489 0.90106 3.6962 0.10547 8.0657-0.49186 10.347-3.6848l0.0322-0.0318 0.0322-0.0494s0.99969-1.9906 2.3976-3.2021c0.69895-0.60553 1.4512-0.97827 2.1723-0.94941zm154.83 1.239c0.29254 3e-3 4.0231 0.0494 6.195 0.77194l0.0641 0.0159 0.0486 0.0159s1.4039 0.2002 2.8803 0.69206c0.73818 0.24637 1.493 0.5561 2.0757 0.93333 0.0935 0.0577 0.14249 0.13015 0.22527 0.19264-1.9782-1.218-5.0846-1.6734-5.0846-1.6734-2.4716-0.82384-6.5974-0.82054-6.5974-0.82054-10.71 7.4149-36.253 5.7767-36.253 5.7767l-25.536-1.6574c-0.81441 0.81397-8.7773 1.6227-8.9628 1.6413 0.0346-0.0577 0.0799-0.10149 0.11264-0.1608 0.11996-8e-3 2.0049-0.19701 4.1194-0.49926 1.0902-0.15562 2.2048-0.33194 3.1217-0.53055 0.45838-0.0995 0.86471-0.20776 1.2068-0.32199 0.19196-0.0661 0.33863-0.17552 0.49887-0.25711l25.408 1.6252s6.4362 0.42181 14.209-0.0963c7.6812-0.51244 16.673-1.8865 22.27-5.6478zm12.905 4.1031h14.804c0.0478 0.0159 1.2246 0.4671 2.5906 1.1746-1.381-0.68955-2.478-1.0298-2.478-1.0298h-14.836c-0.0159-0.0494-0.0593-0.0947-0.0808-0.14487zm17.668 1.3195c0.35343 0.19104 0.6441 0.29094 1.0137 0.53058 0.1015 0.0661 0.18905 0.15642 0.28975 0.22488-0.44477-0.28577-0.88131-0.53636-1.3034-0.75634zm5.873 26.727c0.0919 0.15562 0.16716 0.32557 0.27343 0.46631 0.42082 0.5561 0.98997 0.98639 1.6896 1.1264l0.0641 0.0159h11.424c0.0971 0.041 2.1474 0.99053 4.1835 2.6389 1.4273 1.1554 2.6827 2.6024 3.2504 4.1998-1.4748-2.3705-4.195-4.1871-5.8571-5.1331-0.8367-0.47618-1.416-0.72418-1.416-0.72418h-11.521c-1.0088-0.20179-1.6659-1.2071-2.0918-2.5906zm-221.59 2.5102c-2.0716 3.9197-7.8364 2.5424-7.8364 2.5424-12.358-2.4716-16.477 5.7767-16.477 5.7767-0.11256 0.15005-0.17756 0.31044-0.27352 0.4663 0.18727-0.60553 0.44068-1.1936 0.83674-1.7217l0.0645-0.0987s0.93902-1.8969 3.3791-3.5561c2.437-1.6572 6.3315-3.047 12.342-1.8505 0 0 1.9286 0.43005 4.0227 0.20935 1.047-0.11025 2.1628-0.36895 3.1056-0.99761 0.31132-0.20776 0.58082-0.47869 0.83674-0.77198zm220.53 81.564c0.99595 1.5163 3.1639 2.8074 7.3214 2.3975 0 0 3.0273-0.1994 6.4366 0.40203 3.4016 0.6006 7.0464 2.0025 8.5445 4.9723 4e-3 0.0159 0.0943 0.42921 0.12856 0.5635-3.8638-5.7083-15.158-4.9719-15.158-4.9719-5.3863 0.53879-6.8712-1.7207-7.2732-3.363zm-221.69 3.8779c-0.0115 0.041-0.0808 0.30567-0.0808 0.30567 0 0.41194-0.19311 0.7596-0.53098 1.0298-0.33795 0.27025-0.82066 0.47288-1.3999 0.62778-3.4757 0.92685-10.427 0-10.427 0-5.9638 0.59646-8.8868 4.6153-10.057 6.8064 0 0 2.2915-6.9727 10.121-7.7719 0.13939 0.0159 3.0541 0.40203 6.1306 0.40203 1.5748 0 3.142-0.0963 4.4088-0.43415 0.63348-0.16875 1.2051-0.39482 1.6574-0.7563 0.0708-0.0577 0.11379-0.14248 0.17695-0.20935zm57.397-351.38-0.24139 0.20935c-12.857 10.446-31.538 5.6318-31.538 5.6318l-0.0808-0.01592h-0.0807c-18.145 0-23.992 0.82058-23.992 0.82058l-0.25748 0.04935-0.16091 0.19264c-1.8753 2.2504-4.1739 2.2187-6.195 1.6413-1.973-0.56434-3.4688-1.6688-3.54-1.7218-0.37122-0.54209-0.96465-0.85063-1.6091-1.0781-0.72971-0.25791-1.5657-0.40864-2.3654-0.51494-1.5993-0.21333-3.0734-0.22488-3.0734-0.22488h-0.0322l-0.0163 0.01592c-18.08 1.2328-29.354 0.19781-36.076-1.1264-3.3608-0.66157-5.5809-1.4024-6.9512-1.9631-1.3705-0.56103-1.8505-0.91721-1.8505-0.91721l0.08076 0.08239c-0.26225-0.26189-0.51383-0.35741-0.82066-0.45063-0.30683-0.09314-0.65982-0.16398-1.0459-0.22488-0.77222-0.12179-1.6868-0.18945-2.5746-0.24159-1.7755-0.10706-3.4435-0.11304-3.4435-0.11304h-0.41835l-0.19312 0.36975c-0.7165 1.433-2.9378 4.4398-3.1056 4.6663-0.09986 0.03184-0.32147 0.09871-0.7241 0.14488-0.46456 0.04935-1.0706 0.09393-1.7539 0.11303-1.3666 0.041-3.0583 0.01592-4.6985-0.03184-3.2805-0.10229-6.3558-0.30567-6.3558-0.30567l-0.03224-0.01592h-0.01632c-3.4362 0-5.5045 1.1116-6.6615 2.2688-1.1572 1.1572-1.416 2.3975-1.416 2.3975l-0.01632 0.04935-0.82066 15.753v0.04935c0.40756 4.8904-0.08585 6.8697-0.41835 7.4018-0.16625 0.26627-0.17019 0.20935-0.17696 0.20935l-0.56318-0.36975-0.38615 0.5635c-0.21496 0.32199-1.0359 0.75797-2.2045 1.0137-1.1686 0.25553-2.6206 0.38408-4.039 0.43419-2.8365 0.1015-5.487-0.0963-5.487-0.0963l-0.06428-0.0159-0.06428 0.0159c-2.2382 0.22408-3.9133 1.3193-5.0846 2.7837-1.1715 1.4644-1.8743 3.2762-2.301 5.0364-0.85349 3.5207-0.62754 6.9031-0.62754 6.9031v0.0812c0.4472 2.2359 1.7221 3.8053 3.3147 4.8112 1.5927 1.0058 3.496 1.4923 5.3098 1.7056 3.5281 0.4152 6.6281-0.17632 6.8064-0.20935h0.01632c4.3857 0.4037 5.9785 1.759 6.5652 2.8481 0.58766 1.0915 0.25747 2.0436 0.25747 2.0436l-0.03224 0.0963v0.11303c0 1.704 0.21238 15.251 0.41835 28.433 0.20521 13.133 0.40072 25.764 0.40231 25.858-0.19598 1.7636-0.6689 2.8718-1.2229 3.5562-0.55403 0.68466-1.1865 0.98066-1.8344 1.1102-1.2956 0.2595-2.5906-0.25711-2.5906-0.25711l-0.12876-0.0661h-0.12876c-9.2159 0-13.454 3.2166-15.222 6.5329-1.7604 3.3006-1.1005 6.5664-1.0942 6.5974 0.45206 5.9813 4.2221 8.7399 7.7719 9.8153 3.5623 1.0795 6.9676 0.64342 6.9676 0.64342l-0.08072 0.0159c4.4084 0 6.2153 1.164 6.9835 2.1884 0.76832 1.0244 0.59542 1.9631 0.59542 1.9631l-0.03224 0.20936 0.09656 0.20935c-0.02786-0.0577 0.0964 0.42018 0.12868 1.0459 0.03224 0.62528 0.05106 1.4576 0.03224 2.4136-0.03781 1.9122-0.16772 4.3308-0.32179 6.6937-0.30822 4.7264-0.7241 9.2525-0.7241 9.2525v0.0824l0.01632 0.0963c0.86125 4.7367 3.6005 6.6806 6.0665 7.241 2.285 0.51901 4.168-0.0159 4.4573-0.0963h0.03224l65.763 1.6574c9.3886 6.8394 15.452 7.0364 19.084 5.1654 3.4765-1.791 4.3896-4.9887 4.5055-5.3584l1.1424 0.17712c0.73496 0.12259 2.1738 0.18467 4.2802 0.24159 2.1064 0.0577 4.8374 0.0931 7.9813 0.11264 6.2874 0.0414 14.217 0.0159 22.045-0.0318 7.8281-0.0494 15.563-0.12856 21.433-0.19264 5.8432-0.0661 9.8456-0.11224 10.234-0.11304h0.0486c2.7008 0.6006 4.8104 0.46464 6.4362-0.16079 1.6564-0.63682 2.7778-1.7653 3.5078-2.9446 1.4513-2.3444 1.4484-4.925 1.4482-4.956v-0.0318l0.82065-19.631c0.33497-1.2901 1.7356-2.2358 3.186-2.816 1.4037-0.56187 2.6706-0.74229 2.7677-0.7563 9.1459 1.2089 13.629-2.0171 15.592-5.6159 1.9646-3.6018 1.5323-7.4504 1.5286-7.4822v-0.0159c-0.43506-5.9952-3.9881-8.9536-7.3373-10.25-3.3529-1.2979-6.5652-1.062-6.5652-1.062l0.0486-0.0159c-4.3674 0-6.3721-1.5184-7.3859-2.9929-1.0087-1.4672-1.0137-2.8824-1.0137-2.8964v-0.0159c0.22822-1.432 0.36804-4.9827 0.48271-9.7994 0.11598-4.872 0.18989-10.895 0.24139-16.767 0.10296-11.744 0.11263-22.865 0.11263-22.865 0-1.0106 0.57334-2.6394 1.1746-3.9422 0.52621-1.14 0.92279-1.802 1.0459-2.0115 5.0742 0.51654 8.9504 0.21333 11.666-0.7563 2.8353-1.0126 4.5811-2.6664 5.5837-4.3928 1.9824-3.4141 1.0978-7.0133 1.0781-7.0961 0.37576-3.0947-0.089-5.4356-1.1746-7.0639-1.1105-1.6658-2.7613-2.5952-4.4088-3.0895-3.1944-0.95821-6.3817-0.37572-6.5811-0.33791-5.6382 0-7.5718-1.5629-8.2547-2.9286-0.68259-1.3718-0.17672-2.7577-0.17672-2.7577l0.0163-0.0657 0.0163-0.0661c1.2468-7.8965 0.83646-13.343 0.0966-16.831-0.7399-3.4882-1.8666-5.085-1.8666-5.085l-0.0642-0.09632-0.11264-0.08239c-0.84131-0.56103-2.055-0.77445-3.5239-0.93325-1.469-0.1592-3.1683-0.20935-4.7789-0.20935-3.2215 0-6.1146 0.20935-6.1146 0.20935l-0.20919 0.01592-0.14484 0.11264c-0.58965 0.44243-1.2278 0.39284-2.1079-0.04935-0.88012-0.43992-1.8702-1.2893-2.7677-2.2366-1.7949-1.8946-3.2182-4.1194-3.2182-4.1194l-0.16092-0.24159zm233.16 0-0.24118 0.20935c-12.857 10.446-31.538 5.6318-31.538 5.6318l-0.0808-0.01592h-0.0967c-17.323 0-23.155 0.82058-23.155 0.82058l-0.25751 0.04935-0.1608 0.19264c-1.8753 2.2504-4.1739 2.2187-6.195 1.6413-1.9444-0.5553-3.41-1.6223-3.5239-1.7057-0.37015-0.55447-0.97325-0.86408-1.6252-1.0942-0.72967-0.25791-1.5657-0.40864-2.3654-0.51494-1.5993-0.21333-3.0734-0.22488-3.0734-0.22488h-0.0318l-0.0159 0.01592c-18.08 1.2328-29.354 0.19781-36.076-1.1264-3.3608-0.66157-5.5809-1.4024-6.9513-1.9631-1.3705-0.56103-1.8505-0.91721-1.8505-0.91721l0.0807 0.08239c-0.26225-0.26189-0.52999-0.35741-0.83673-0.45063-0.30679-0.09314-0.64366-0.16398-1.0298-0.22488-0.7722-0.12179-1.7029-0.18945-2.5906-0.24159-1.7755-0.10468-3.4274-0.11304-3.4274-0.11304h-0.41836l-0.19312 0.36975c-0.71825 1.4365-2.9642 4.4697-3.1217 4.6826-0.10701 0.03184-0.33047 0.08398-0.7241 0.12856-0.46456 0.04935-1.0545 0.09393-1.7378 0.11303-1.3667 0.041-3.0583 0.01592-4.6985-0.03184-3.2805-0.10229-6.3721-0.30567-6.3721-0.30567l-0.0163-0.01592h-0.0163c-3.8325 0-6.0852 1.0835-7.3536 2.2366-1.2685 1.1532-1.5608 2.4297-1.5608 2.4297v16.671c0.40674 4.4744-0.10667 6.248-0.4023 6.6615-0.14782 0.20697-0.1343 0.13015-0.16092 0.12856-0.0263-2e-3 -0.0486 0-0.0486 0l-0.54711-0.36975-0.38616 0.56354c-0.21496 0.32199-1.0359 0.75793-2.2044 1.0136-1.1686 0.25552-2.6367 0.38408-4.0549 0.43419-2.8365 0.10149-5.487-0.0963-5.487-0.0963l-0.0486-0.0159-0.0643 0.0159c-2.4283 0.2209-4.2575 1.2908-5.5514 2.7515-1.2939 1.4609-2.0771 3.2877-2.5585 5.0527-0.96271 3.5298-0.74014 6.919-0.74014 6.919v0.0318l0.0163 0.0493c0.4472 2.2359 1.7221 3.8053 3.3148 4.8111 1.5927 1.0059 3.4799 1.4923 5.2939 1.7056 3.5284 0.41524 6.6444-0.17632 6.8227-0.20936h0.0163c4.3857 0.4037 5.9626 1.759 6.5489 2.8481 0.58766 1.0914 0.27351 2.0436 0.27351 2.0436l-0.0163 0.0159v0.0318c-0.15598 0.62364-0.2008 1.6889-0.25747 3.4113-0.0568 1.7224-0.0933 4.0004-0.11264 6.6296-0.0386 5.2585-0.0191 11.96 0.0322 18.553 0.10265 13.136 0.32032 25.764 0.32179 25.858-0.1959 1.7637-0.68497 2.8718-1.239 3.5562-0.55403 0.68462-1.1866 0.98062-1.8344 1.1102-1.2956 0.25951-2.5746-0.25711-2.5746-0.25711l-0.12876-0.0661h-0.14483c-9.2159 0-13.454 3.2166-15.222 6.5329-1.7604 3.3006-1.1005 6.5664-1.0942 6.5974 0.45214 5.9813 4.2221 8.7399 7.7719 9.8153 3.5623 1.0795 6.9835 0.64346 6.9835 0.64346l-0.0807 0.0159c3.9841 0 5.7898 1.155 6.6778 2.2205 0.88803 1.0657 0.885 2.0436 0.885 2.0436v0.1608l0.0642 0.14488c-0.0279-0.0577 0.0963 0.42017 0.12877 1.0459 0.0322 0.62527 0.0354 1.4576 0.0163 2.4136-0.0378 1.9122-0.16772 4.3307-0.3218 6.6937-0.30822 4.7264-0.70801 9.2525-0.70801 9.2525l-0.0163 0.0824 0.0163 0.0963c0.86124 4.7367 3.6166 6.6806 6.0824 7.241 2.283 0.519 4.1652 4e-3 4.4573-0.0824h0.0322l65.763 1.6574c9.3886 6.8394 15.436 7.0364 19.068 5.1654 3.5025-1.8043 4.6289-5.2259 4.7308-5.5514l0.0159-0.0159c0.29612-0.56764 0.92533-0.83669 1.239-0.83669 0.15881 0 0.14488 0.0318 0.11264-0.0159-0.0318-0.0494 0.0318-0.0159-0.11264 0.27343l-0.40227 0.82058 0.9011 0.14487c0.73496 0.12259 2.1738 0.18468 4.2802 0.24159 2.1064 0.0577 4.8374 0.0931 7.9813 0.11304 6.2874 0.0414 14.217 0.0159 22.045-0.0318 7.8281-0.0494 15.547-0.12856 21.417-0.19264 5.8706-0.0661 9.9427-0.11303 10.298-0.11303 2.896 0.59896 5.1065 0.44899 6.7741-0.17712 1.6973-0.63602 2.8109-1.7692 3.4918-2.9607 1.3618-2.3833 1.1103-5.0364 1.1103-5.0364l0.0159 0.0963 0.82062-19.663c0.33512-1.2901 1.7195-2.2358 3.17-2.816 1.4166-0.5668 2.7086-0.72911 2.7837-0.73982 9.1463 1.2092 13.629-2.0331 15.592-5.6318 1.9646-3.6018 1.5162-7.4344 1.5125-7.4663v-0.0318c-0.43509-5.9952-3.972-8.9536-7.3214-10.25-3.3528-1.2979-6.5811-1.062-6.5811-1.062l0.0641-0.0159c-4.7928 0-6.7582-1.5351-7.6593-2.9769-0.90109-1.4418-0.7241-2.8481-0.7241-2.8481v-0.0812c0-4.8681 0.82066-49.417 0.82066-49.417v-0.0159c0-1.0106 0.57329-2.6394 1.1746-3.9422 0.52633-1.1405 0.93914-1.8026 1.062-2.0115 5.0742 0.51654 8.9504 0.21334 11.666-0.7563 2.8353-1.0126 4.5811-2.6663 5.5837-4.3928 1.9824-3.4141 1.0978-7.0133 1.0781-7.0961 0.37572-3.0946-0.10508-5.4356-1.1907-7.0639-1.1105-1.6658-2.7614-2.5952-4.4092-3.0895-3.2069-0.96203-6.4064-0.37055-6.5811-0.33791-5.6382 0-7.5558-1.5629-8.2388-2.9286-0.68291-1.3657-0.17712-2.7515-0.17712-2.7515l0.0318-0.13214c1.2468-7.8965 0.83646-13.343 0.0967-16.831-0.7399-3.4882-1.8666-5.085-1.8666-5.085l-0.0808-0.09632-0.0967-0.08239c-0.84127-0.56104-2.055-0.77441-3.5239-0.93325-1.469-0.1592-3.1683-0.20935-4.7789-0.20935-3.2215 0-6.1305 0.20935-6.1305 0.20935l-0.19304 0.01592-0.16079 0.11304c-0.58966 0.44239-1.2117 0.39284-2.0919-0.04935-0.88016-0.43996-1.8863-1.2894-2.7837-2.2366-1.7949-1.8946-3.2021-4.1194-3.2021-4.1194l-0.16079-0.24159z"/>
  <path d="m256.65 590-1.6477-0.82388c-1.6477-0.82384-226.56-98.038-243.86-393.81v-185.37h487.72v184.55c0 72.502-23.068 257.04-240.57 393.81zm-239.75-574.25v178.78c16.477 280.11 220.8 380.62 239.75 388.86 213.38-135.94 236.45-317.19 236.45-388.86v-178.78z"/>
  <path d="m83.637 79.234s-4.9433 0.0032-4.1194 3.2986l-1.6413 125.22s-0.0032 5.7735 9.0591 6.5974c0 0 11.528 0.82388 13.999 0h26.373s4.9401 4.9306 4.9401-0.8367c0 0 3.289-101.32 1.6413-122.74 0 0-3e-3 -9.0754-7.4181-9.0754 0 0-29.646 2.4716-32.118 0zm114.36 0.19264c-1.0861-0.09632-2.8353 0.21254-5.6159 1.4482 0 0 0.8367 3.3051-36.237 1.6574-0.82389 0-14.833-8e-3 -15.657 5.7608 0 0-0.82066 59.319-0.82066 60.967l-0.83673 49.433-0.82065 17.298s2.4716 3.2922 4.1194 0.82053c0 0 12.358-3.289 20.597-1.6413 0 0 24.726 2.4619 30.492-1.6574 0 0 4.1162 1.6477 4.9401-4.1194 0 0 1.6445-109.57 0.82065-111.22 0 0 1.6445-15.65 0.82066-17.298 0 0 8e-3 -1.2873-1.8022-1.4482zm-135.82 3.0734c-1.6172 0.04935-3.9713 1.062-7.3696 4.1512l-0.82066 16.477s-8e-6 9.0623-8.2388 8.2388c0 0-9.0722 0-14.015 4.1194 0 0-2.4652 8.2257 6.5974 7.4018 0 0 14.012 8e-3 14.836 5.7767l-0.83674 59.311s3.3083 9.8961-7.4018 9.8961c0 0-13.195-0.8367-13.195 7.4018 0 0 2.4812 6.6038 14.015 4.956 0 0 8.242 1.6445 7.4181 9.0591v14.82s-0.83674 5.7735 7.4018 6.5974h60.967s3.2987-3e-3 3.2987-3.2987c0 0 3e-3 -3.2987-4.9401-3.2987l-50.253-1.641s-8.2515 2.478-9.0754-9.8798c0 0 0.79765-105.79 0.82066-110.45 4.69e-4 2e-3 0.01632 0.0494 0.01632 0.0494s-0.01393-0.38886-0.01632-0.43419c1.99e-4 -0.0414 0.01632-1.205 0.01632-1.2229-0.01552-0.0318-0.01711-0.0318-0.03224-0.0661-0.08748-4.049-0.10296-18.381 4.1516-25.472 0 0-0.65166-2.5746-3.3469-2.4941zm156 0.30567c-3.5352 0.30567-3.54 4.6663-3.54 4.6663 1.6477 1.6477 2.4619 7.4181 2.4619 7.4181 0.82388 13.182 0 28.008 0 42.014-0.82388 46.961-2.4619 89.803-2.4619 89.803 0 9.0623-4.9401 6.5811-4.9401 6.5811h-54.388c-5.7672 0-5.7604 3.2987-5.7604 3.2987 0.82388 4.9433 5.7604 3.2987 5.7604 3.2987 4.9433 0.82384 59.327 0 59.327 0 8.2384 0.82384 7.4181-9.8961 7.4181-9.8961 0.82388-18.949 2.4619-20.597 2.4619-20.597 1.6477-0.82384 10.717-0.82054 10.717-0.82054 14.829 0.82384 8.2388-9.0591 8.2388-9.0591-1.6477-2.4716-11.537-2.478-11.537-2.478-9.0623 0.82384-8.2388-9.0591-8.2388-9.0591l0.82067-56.848c-1.6477-4.9433 2.478-7.4018 2.478-7.4018h9.0591c12.358 0.82388 9.0591-7.4181 9.0591-7.4181 0-4.1194-10.7-5.7767-10.7-5.7767-9.8862 1.6477-9.0754-4.1194-9.0754-4.1194v-13.999c1.6477-9.0627-4.1194-9.0591-4.1194-9.0591-1.2358-0.463-2.2254-0.61787-3.0412-0.54702zm-11.634 1.8344c-1.0511 0.1409-2.2077 0.97835-3.4435 2.832v123.58s3.2954 10.704 8.2388 9.8798c0 0 0.82067-2.4619 0.82067-6.5811l1.6574-117.82s-2.7182-12.503-7.2732-11.891zm-132.78 1.1746c-7.4149 0-8.2388 14.015-8.2388 14.015l-0.83674 116.98c0.82388 5.7672 2.478 4.9401 2.478 4.9401 7.4149-4.9433 6.5974-13.178 6.5974-13.178s0.82066-111.22 0.82066-112.86-0.82066-9.8961-0.82066-9.8961zm3.4274 131.77c-0.3518 0.0159-0.74667 0.074-1.1586 0.19264-1.6476 0.47041-3.6793 1.8877-5.3906 5.3098l-0.03224 0.0661-0.01632 0.0661s-0.48903 1.5356-0.11264 3.0412c0.18826 0.75304 0.67005 1.5516 1.5448 1.9632 0.84533 0.39801 1.9653 0.41194 3.4274 0.0159h40.227l10.797 2.4941 0.14484-0.0318s0.7717-0.17791 1.7218-0.53138c0.95009-0.35264 2.1085-0.86949 2.9608-1.7217 0.42611-0.42595 0.78226-0.95124 0.93331-1.577 0.15099-0.62614 0.0692-1.3438-0.25749-2.0435-0.65304-1.3994-2.2048-2.823-5.149-4.5055l-0.16092-0.0963h-38.827c-0.06014-0.0159-1.8148-0.39721-3.8297-0.90105-2.0488-0.51244-4.392-1.1903-5.0042-1.4965l-0.03224-0.0159h-0.01632s-0.71471-0.28179-1.77-0.22488zm122.4 2.1723c-2.3171-0.11622-5.5514 0.35423-5.5514 0.35423-6.591 4.1194-45.313 0.82058-45.313 0.82058-2.4716 0-5.7767 4.1194-5.7767 4.1194-0.82388 7.4149 11.54 4.1194 10.717 4.1194h46.133c7.4149 1.6477 7.4181-1.6413 7.4181-1.6413 0-2.4716-5.7604-7.4181-5.7604-7.4181-0.41194-0.20577-1.0942-0.31562-1.8666-0.35423zm-60.951 9.2362c-0.21114 0.0159-0.42156 0.074-0.62753 0.17711 0 0-7.4181 8e-3 -7.4181 9.8961 0 0 0.82387 7.4018 8.2388 7.4018 0 0 6.5974-1.6445 6.5974-9.0591 0 0-3.6225-8.687-6.7904-8.4155zm177.32-149.76s-4.9433 0.0032-4.1194 3.2987l-1.6413 125.22s-3e-3 5.7735 9.0591 6.5974c0 0 11.544 0.82388 14.015 0h26.357s4.9401 4.9337 4.9401-1.6574c0 0 3.3051-101.34 1.6574-122.76 0 0-3e-3 -9.0591-7.4181-9.0591 0 0-29.662 2.4716-32.134 0zm114.04 1.0138c-0.97353 0.041-2.3976 0.41855-4.4573 1.4482 0 0 0.82065 3.3051-36.253 1.6574-0.82384 0-15.657-0.83029-15.657 5.7608 0 0-0.82065 59.319-0.82065 60.967l-0.82066 49.433-1.6413 17.298s2.4716 3.2923 4.1194 0.82058c0 0 12.358-3.289 20.597-1.6413 0 0 24.709 2.478 30.476-1.6413 0 0 4.1162 1.6477 4.9401-4.1194 0 0 1.6445-109.57 0.82066-111.22 0 0 1.6606-15.666 0.83674-17.314 0 0 2e-3 -1.5456-2.1401-1.4482zm-136.32 2.2528c-1.6172 0.04935-3.9713 1.062-7.3696 4.1512v15.641s-1e-5 9.0627-8.2388 8.2388c0 0-9.0559 0-13.999 4.1194 0 0-2.4812 8.242 6.5811 7.4181 0 0 14.012 8e-3 14.836 5.7767l-0.82065 59.311s3.2954 9.8798-8.2388 9.8798c0 0-13.179-0.82058-13.179 7.4181 0 0 2.4652 6.5879 13.999 4.9401 0 0 8.2388 1.6606 8.2388 9.0754v14.82s-0.81744 5.7735 6.5974 6.5974h60.951s3.2987-3e-3 3.2987-3.2987c0 0 3e-3 -3.2987-4.9401-3.2987l-49.433-0.82053s-8.2352 2.478-9.0591-9.8798c0 0 0.82387-110.41 0-112.06v1.6574s-0.82388-18.955 4.1194-27.194c0 0-0.65166-2.5746-3.347-2.4941zm156.82 0.30567c-3.5352 0.30567-3.5401 4.6663-3.5401 4.6663 0.82388 1.6477 2.478 7.4181 2.478 7.4181 0.82384 13.182 0 28.008 0 42.014-0.82388 46.961-2.478 89.803-2.478 89.803 0 9.0623-4.9401 6.5811-4.9401 6.5811h-54.372c-5.7672 0-5.7767 3.2987-5.7767 3.2987 0.82388 4.9433 6.5974 3.3019 6.5974 2.478 4.9433 0.82388 59.311 0 59.311 0 8.2388 0.82388 7.4181-9.8961 7.4181-9.8961 0.82388-18.949 2.478-20.597 2.478-20.597 1.6477-0.82384 10.7-0.82054 10.7-0.82054 14.006 0.82384 7.4181-9.0591 7.4181-9.0591-1.6477-2.4716-11.537-2.478-11.537-2.478-9.0623 0.82388-8.2388-9.0591-8.2388-9.0591l0.83673-56.848c-1.6477-4.9433 2.4619-7.4181 2.4619-7.4181h9.0591c12.358 0.82385 9.0754-7.4018 9.0754-7.4018 0-4.1194-10.717-5.7767-10.717-5.7767-9.8862 1.6477-9.0591-4.1194-9.0591-4.1194v-13.178c1.6477-9.0627-4.1194-9.0591-4.1194-9.0591-1.2358-0.463-2.2415-0.61787-3.0573-0.54702zm-11.634 2.1402c-1.0511 0.08637-2.2077 0.82706-3.4435 2.5262v123.58s3.2954 10.704 8.2388 9.8798c0 0 0.8367-2.4619 0.8367-6.5811l1.6413-117.82s-2.7182-11.959-7.2732-11.586zm-132.78 0.8689c-7.4149 0-8.2388 14.015-8.2388 14.015l-0.82065 116.98c0.82389 5.7672 2.4619 4.9401 2.4619 4.9401 7.4149-4.9433 6.5974-13.179 6.5974-13.179s0.82065-111.22 0.82065-112.86-0.82065-9.8961-0.82065-9.8961zm4.7148 131.64c-1.4381-0.041-4.0904 0.60143-6.3558 5.1331 0 0-1.6477 5.7672 4.1194 4.1194h40.358l10.717 2.4619s11.534-2.4684 0-9.0591h-38.715s-7.4277-1.6541-9.0754-2.478c0 0-0.39223-0.15642-1.0459-0.17711zm121.57 1.4647c-2.0918 0.041-4.3447 0.36975-4.3447 0.36975-6.591 4.1194-45.313 0.82053-45.313 0.82053-2.4716 0-5.7767 4.1194-5.7767 4.1194-1.6477 7.4149 10.717 4.1194 10.717 4.1194h46.133c7.4149 1.6477 7.4181-1.6413 7.4181-1.6413 0-2.4716-5.7767-7.4181-5.7767-7.4181-0.61791-0.30886-1.8022-0.39403-3.0573-0.37015zm-60.565 9.2521c-0.21731 0.0159-0.42157 0.074-0.6275 0.17712 0 0-7.4213-8e-3 -6.5974 9.8798 0 0 0.82384 7.4181 8.2388 7.4181 0 0 6.5974-0.82054 6.5974-9.0591 0 0-4.3526-8.687-7.6112-8.4155zm-122.56 160.01s0 9.0623-0.82388 18.125c-0.82388 4.9433 1.6477 28.011 0 39.545 0 0 0 4.1194-8.2388 0.82384 0 0-50.257 0.82384-51.081-0.82384 0 0-14.006 0.82384-14.829-6.591 0 0 1.6477-53.552 0.82388-55.2 0 0-0.82388-28.835 0-32.131 0 0 0.82388-27.187 0-30.483 0 0 0-6.591-0.82388-9.0623 0 0 0-4.1194 6.591-1.6477 0 0 2.4716 4.1194 14.829 2.4716 0 0 9.0623 1.6477 18.125 0 0 0 19.773-1.6477 24.716 0 0 0 8.2388-1.6477 9.8862 7.4149v23.892l2.4716 8.2388 2.4716-1.6477 0.82388-5.7672v-25.54s1.6477-4.9433 8.2388-5.7672c0 0 9.8862-0.82388 11.534 0 1.6477 0.82384 23.068 1.6477 28.835 0.82384 5.7672-0.82384 6.591 4.1194 24.716-4.9433 0 0 4.9433 0 4.9433 3.2954 0 0-1.6477 32.954 0 39.545 0 0 0 60.967-1.6477 65.087l0.82384 19.773s0.82388 8.2388-13.182 9.0623c0 0 8.2388 0.82388-45.313-0.82384 0 0-8.2388-0.82388-18.125 4.1194 0 0-1.6477-0.82384-1.6477-5.7672 0 0 1.6477-18.125 0-36.25l-0.82388-19.773zm86.503 53.552s4.9433 9.0623 6.591 9.8862c0 0 4.1194 4.9433 3.2954-4.1194l0.82387-112.87s-0.82387-4.1194 0-9.8862l-4.9433-8.2388s-4.9433-4.1194-4.9433 2.4716v119.46zm-163.95 4.9433s5.7672 5.7672 14.829 5.7672l52.728 0.82388s5.7672 0.82384 5.7672 3.2954c0 0-0.82388 4.9433-8.2388 3.2954l-64.263-0.82384-7.4149 0.82384s-4.9433-0.82384 2.4716-9.8862zm-11.534-129.35s-4.9433 8.2388-4.1194 10.71v130.17s-0.82388 9.0627 6.591 6.591c0 0 68.382-1.6477 73.325 0 0 0 6.591 0.82388 4.1194 4.1194 0 0 0 2.4716-4.1194 1.6477 0 0-32.131 3.2954-61.791 1.6477 0 0-19.773 0.82388-20.597-0.82384 0 0-3.2954-0.82384-3.2954-11.534 0 0 0-10.71-0.82388-12.358 0 0 0.82388-5.7672-9.0623-6.591 0 0-14.006 2.4716-14.006-5.7672 0 0 1.6477-5.7672 15.653-4.9433 0 0 9.8862 1.6477 7.4149-6.591l0.82388-57.672s1.6477-9.8862-5.7672-10.71h-8.2388s-11.534 0-10.71-6.591c0 0 4.1194-6.591 15.653-5.7672 0 0 8.2388 1.6477 9.0623-8.2388 0 0 0-19.773 4.1194-20.597-0.82388 0 9.0623 0.82388 5.7672 3.2954m6.591-0.82384s2.4716 0 2.4716 4.9433l-0.82388 117.81s0.82388 7.4149-5.7672 13.182c0 0-3.2954 4.1194-3.2954-2.4716l1.6477-120.28s0-9.0627 5.7672-13.182m92.271 138.41s6.591-4.9433 9.8862-4.1194c0 0 35.426 2.4716 46.137 0.82388 10.71-1.6477 4.1194-0.82388 4.1194-0.82388s9.0627 0 12.358-3.2954c0 0 2.4716-0.82384 4.1194 1.6477l5.7672 6.591s0 4.1194-6.591 3.2955c0 0-63.439 0-65.91 0.82384 0.82388 0-10.71 1.6477-9.8862-4.9433m4.1194 10.71s4.9433-2.4716 8.2388-1.6477c3.2954 0.82384 48.609-0.82389 48.609-0.82389s19.773 1.6477 23.068-1.6477l4.9433-1.6477s1.6477-2.4716 1.6477-5.7672v-14.006l0.82384-4.1194v-107.92s1.6477-8.2388-3.2954-13.182c0 0 0-3.2954 1.6477-2.4716 1.6477 0.82384 0.82389 0 0.82389 0s6.591-1.6477 8.2388 0.82384c0 0 3.2954 9.0627 0 14.829 0 0-0.82384 11.534 4.9433 11.534 0 0 2.4716 2.4716 6.591 0.82389 0 0 9.8862 0.82384 9.8862 4.1194 0 0 0 7.4149-6.591 5.7672l-9.0627 0.82384s-6.591 1.6477-5.7672 8.2388c0.82387 7.4149 0 60.967 0 60.967s0 6.591 9.8862 5.7672c0 0 12.358-0.82388 12.358 3.2954 0 0 3.2954 7.4149-5.7672 8.2388 0 0-16.477-0.82388-14.829 4.1194 0 0-0.82388 10.71-1.6477 13.182 0 0 1.6477 9.0627 0 10.71 0 0-0.82387 4.9433-11.534 4.1194 0 0-66.734 0-77.445 0.82388-0.82387 1.6477-7.4149 0.82385-5.7672-4.9433m-11.534-7.4149s6.591 0.82388 6.591 7.4149c0 6.591 0 9.8862-3.2954 10.71-4.1194 0.82388-8.2388-0.82384-9.0623-5.7672-1.6477-4.9433 0-10.71 5.7672-12.358" fill="#fff"/>
  <path d="m128.95 124.53-3.2954 7.4149s-8.2388 37.898-13.182 45.313c0 0-0.82388 8.2388-7.4149 1.6477 0 0-15.653-47.785-16.477-49.433l-4.9433-3.2954s-3.2954-4.1194 2.4716-4.9433h14.829s4.9433 4.1194-1.6477 8.2388c0 0 0.82388 6.591 9.0623 30.483 0 0 2.4716 9.0623 4.9433 2.4716l8.2388-28.011-2.4716-8.2388s-2.4716-4.1194 0.82388-4.1194c0 0 8.2388-0.82388 9.0623 2.4716m22.244 6.591v41.194l-0.82389 3.2954s-4.1194 4.9433-0.82388 5.7672c0 0-3.2954 2.4716 24.716 2.4716 0 0 10.71 1.6477 8.2388-12.358 0 0-0.82388-4.9433-4.9433 2.4716 0 0-0.82388 6.591-15.653 4.1194 0 0-3.2954-2.4716-3.2954-5.7672v-17.301s0-4.1194 6.591-4.1194c0 0 7.4149 4.9433 8.2388 2.4716 0 0 2.4716-6.591 0-9.8862 0 0-3.2954 0-4.1194 0.82388 0 0-2.4716 4.9433-9.0623 1.6477 0 0-3.2954-6.591-0.82389-11.534 0 0-0.82388-9.8862 5.7672-9.0627 0 0 8.2388 1.6477 8.2388 4.1194 0 0 1.6477 4.9433 4.1194-0.82388l-1.6477-5.7672s-0.82388-2.4716-3.2954-1.6477c0 0-13.182 1.6477-14.829 0l-10.71 0.82388s-1.6477 4.1194 3.2954 5.7672c0 0.82388 0.82388 1.6477 0.82388 3.2954m236.45-6.591c-0.82384-3.2954 6.591-3.2954 6.591-3.2954l4.1194 0.82388c2.4716 0 5.7672 0.82385 5.7672 0.82385 2.4716 4.1194-1.6478 6.591-1.6478 6.591l-1.6477 4.9433v41.194c0.82384 1.6477 4.1194 5.7672 4.1194 5.7672 0 3.2954-4.1194 2.4716-4.1194 2.4716h-11.534c-3.2954 0-2.4716-4.1194-2.4716-4.1194 4.1194-1.6477 4.9433-9.0627 4.9433-9.0627v-38.722zm-52.728 36.25-0.82387 12.358 3.2954 5.7672c2.4716 3.2954-1.6477 5.7672-1.6477 5.7672l-12.358-1.6477c-2.4716-0.82388 0-4.9433 0-4.9433 3.2954-1.6477 3.2954-6.591 3.2954-6.591v-39.545c0-1.6477-3.2954-5.7672-3.2954-5.7672-2.4716 0-1.6477-4.1194-1.6477-4.1194 0.82384-1.6477 7.4149-0.82388 7.4149-0.82388h16.477c15.653 4.9433 13.182 16.477 13.182 16.477 0.82384 11.534-10.71 15.653-10.71 15.653l-0.82387 6.591 11.534 18.125c1.6477 1.6477 1.6477 3.2954 1.6477 3.2954-1.6477 4.1194-8.2388 0-8.2388 0l-14.006-22.244c-1.6477-1.6477-3.2954 1.6477-3.2954 1.6477m0-31.307v20.597c7.4149 5.7672 11.534-2.4716 11.534-2.4716 9.8862-9.0623 0-18.125-1.6477-20.597-1.6477-2.4716-9.0627 0-9.0627 0zm-120.28 230.68s0.82388 28.835 0 32.954v6.591s1.6477 4.1194 4.1194 5.7672c0 0 1.6477 5.7672-2.4716 4.9433 0 0-9.8862-0.82388-12.358 0 0 0-5.7672 0 0-6.591 0 0 1.6477-2.4716 1.6477-9.8862 0 0 0-32.954 0.82388-34.602 0 0 0.82388-4.1194-1.6477-5.7672h-4.9433l-5.7672 5.7672s-1.6477 5.7672-4.1194 0v-3.2954l3.2954-9.0627h2.4716s3.2954 2.4716 6.591 3.2954h18.125l6.591-3.2954s2.4716 0 1.6477 4.1194c0 0 0.82388 9.0623-4.1194 9.8862 0 0-3.2954-0.82388-4.9433-5.7672 0-0.82388-4.9433-4.1194-4.9433 4.9433m85.68-10.71s-14.829-1.6477-14.829 14.829c0 0-1.6477 10.71 14.829 18.125 0 0 12.358 5.7672 11.534 13.182 0 0-1.6477 13.182-14.829 6.591 0 0-6.591-3.2954-5.7672-6.591 0 0-1.6477-4.1194-4.1194-3.2954 0 0-2.4716 0.82384-1.6477 14.006 0 0 0 4.9433 5.7672 0l3.2954 0.82388s10.71 8.2388 19.773-1.6477c0 0 9.8862-9.0627 2.4716-19.773 0 0-4.9433-8.2388-14.006-11.534 0 0-8.2388-4.1194-10.71-10.71 0 0 2.4716-11.534 13.182-5.7672 0 0 4.1194 4.9433 6.591 5.7672 0 0 3.2954 0 2.4716-7.4149l-0.82388-5.7672s-0.82388-4.1194-6.591 0c0-0.82384-4.9433 1.6477-6.591-0.82384m-46.961-8.2388c2.4716 1.6477 3.2954 5.7672 3.2954 5.7672 8.2388 20.597 14.829 51.081 14.829 51.081 1.6477 4.1194 5.7672 6.591 5.7672 6.591 6.591 2.4716 0 4.1194 0 4.1194-2.4716 0.82384-11.534 0-11.534 0-4.9433-0.82388-2.4716-2.4716-2.4716-2.4716 1.6477-1.6477 0-9.8862 0-9.8862 0-3.2954-4.1194-8.2388-4.1194-8.2388-1.6477-0.82384-4.1194 2.4716-4.1194 2.4716s-4.1194 1.6477-4.9433 0-3.2954-3.2954-3.2954-3.2954c-4.9433 0-6.591 11.534-6.591 11.534 2.4716 9.8862 0 8.2388 0 8.2388-2.4716 3.2954-9.8862 0.82384-9.8862 0.82384-3.2954-0.82384-0.82388-3.2954-0.82388-3.2954 4.1194-0.82384 5.7672-5.7672 5.7672-5.7672 1.6477-2.4716 14.829-53.552 14.829-53.552-0.82388-0.82384 0-5.7672 3.2954-4.1194m-6.591 26.363c0 1.6477-3.2954 13.182-3.2954 13.182l2.4716 4.1194h8.2388c1.6477 0 2.4716-1.6477 2.4716-4.1194 0-1.6477-4.1194-14.006-4.1194-14.006l-1.6477-2.4716z"/>
 </g>
</svg>
