<?xml version="1.0" encoding="UTF-8"?>
<svg id="icon" xmlns="http://www.w3.org/2000/svg" xmlns:xlink="http://www.w3.org/1999/xlink" viewBox="0 0 94 94">
  <defs>
    <style>
      .cls-1 {
        fill: #e5e5e5;
        filter: url(#drop-shadow-2);
        font-family: JetBrainsMono-Bold, 'JetBrains Mono';
        font-size: 7px;
        font-weight: 700;
      }

      .cls-2 {
        fill: #03599c;
      }

      .cls-2, .cls-3, .cls-4, .cls-5 {
        stroke-width: 0px;
      }

      .cls-3 {
        fill: #fff;
      }

      .cls-4 {
        fill: #659ad3;
      }

      .cls-5 {
        fill: #212529;
        filter: url(#drop-shadow-1);
      }
    </style>
    <filter id="drop-shadow-1" filterUnits="userSpaceOnUse">
      <feOffset dx="0" dy="0"/>
      <feGaussianBlur result="blur" stdDeviation="5"/>
      <feFlood flood-color="#212529" flood-opacity=".75"/>
      <feComposite in2="blur" operator="in"/>
      <feComposite in="SourceGraphic"/>
    </filter>
    <filter id="drop-shadow-2" filterUnits="userSpaceOnUse">
      <feOffset dx="0" dy="0"/>
      <feGaussianBlur result="blur-2" stdDeviation="5"/>
      <feFlood flood-color="#212529" flood-opacity=".75"/>
      <feComposite in2="blur-2" operator="in"/>
      <feComposite in="SourceGraphic"/>
    </filter>
  </defs>
  <g>
    <rect class="cls-5" x="15" y="15" width="64" height="64" rx="5" ry="5"/>
    <text class="cls-1" transform="translate(44.9 68.87)"><tspan x="0" y="0">C</tspan></text>
  </g>
  <g>
    <path class="cls-4" d="M60.78,27.38l-12.73-7.2c-.21-.13-.5-.18-.82-.18s-.61.08-.82.18l-12.65,7.22c-.45.26-.76.91-.76,1.4v14.42c0,.28.05.62.26.91l28.15-16.05c-.16-.31-.4-.54-.63-.7Z"/>
    <path class="cls-2" d="M33.18,44.1c.13.21.32.39.5.49l12.7,7.22c.21.13.5.18.82.18s.61-.08.82-.18l12.65-7.22c.45-.26.76-.91.76-1.4v-14.42c0-.23-.03-.49-.16-.72,0,0-28.1,16.05-28.1,16.05Z"/>
    <path class="cls-3" d="M52.85,39.13c-1.11,1.92-3.22,3.21-5.61,3.21-3.56,0-6.46-2.85-6.46-6.34s2.9-6.34,6.46-6.34c2.4,0,4.51,1.29,5.61,3.24l3.43-1.94c-1.79-3.08-5.17-5.18-9.04-5.18-5.75,0-10.41,4.58-10.41,10.23s4.67,10.23,10.41,10.23c3.85,0,7.22-2.07,9.01-5.13,0,0-3.4-1.97-3.4-1.97Z"/>
  </g>
</svg>