<?xml version="1.0" encoding="utf-8"?>
<!-- Generator: Adobe Illustrator 28.2.0, SVG Export Plug-In . SVG Version: 6.00 Build 0)  -->
<svg version="1.1" id="icon" xmlns="http://www.w3.org/2000/svg" xmlns:xlink="http://www.w3.org/1999/xlink" x="0px" y="0px"
	 viewBox="0 0 94 94" style="enable-background:new 0 0 94 94;" xml:space="preserve">
<style type="text/css">
	.st0{fill:#212529;}
	.st1{clip-path:url(#SVGID_00000176038169369530756200000001317034908102241665_);}
	.st2{fill:#A179DC;}
	.st3{fill:#280068;}
	.st4{fill:#390091;}
	.st5{fill:#FFFFFF;}
	.st6{fill:#E5E5E5;}
	.st7{font-family:'JetBrainsMono-Bold';}
	.st8{font-size:7px;}
</style>
<path class="st0" d="M20,15h54c2.8,0,5,2.2,5,5v54c0,2.8-2.2,5-5,5H20c-2.8,0-5-2.2-5-5V20C15,17.2,17.2,15,20,15z"/>
<g>
	<defs>
		<rect id="SVGID_1_" x="33" y="20" width="28.4" height="32"/>
	</defs>
	<clipPath id="SVGID_00000158739691562658795320000013089039754677765018_">
		<use xlink:href="#SVGID_1_"  style="overflow:visible;"/>
	</clipPath>
	<g style="clip-path:url(#SVGID_00000158739691562658795320000013089039754677765018_);">
		<g>
			<path class="st2" d="M61.4,29.4c0-0.5-0.1-1-0.3-1.4c-0.2-0.4-0.6-0.7-1-1c-3.8-2.2-7.6-4.4-11.3-6.5c-1-0.6-2-0.6-3,0
				c-1.5,0.9-9,5.2-11.3,6.5c-0.9,0.5-1.4,1.4-1.4,2.4v13.1c0,0.5,0.1,1,0.3,1.4c0.2,0.4,0.6,0.8,1,1c2.2,1.3,9.8,5.6,11.3,6.5
				c1,0.6,2,0.6,3,0c3.8-2.2,7.6-4.3,11.3-6.5c0.5-0.3,0.8-0.6,1-1c0.2-0.4,0.3-0.9,0.3-1.4L61.4,29.4
				C61.4,29.4,61.4,29.4,61.4,29.4z"/>
			<path class="st3" d="M47.2,35.9l-13.9,8c0.2,0.4,0.6,0.8,1,1c2.2,1.3,9.8,5.6,11.3,6.5c1,0.6,2,0.6,3,0c3.8-2.2,7.6-4.3,11.3-6.5
				c0.5-0.3,0.8-0.6,1-1L47.2,35.9L47.2,35.9L47.2,35.9z"/>
			<path class="st4" d="M61.4,29.4c0-0.5-0.1-1-0.3-1.4l-13.8,8l13.8,8c0.2-0.4,0.3-0.9,0.3-1.4L61.4,29.4L61.4,29.4L61.4,29.4z"/>
			<path class="st5" d="M55.4,32.9v1.5h1.5v-1.5h0.8v1.5h1.5v0.8h-1.5v1.5h1.5v0.8h-1.5v1.5h-0.8v-1.5h-1.5v1.5h-0.8v-1.5h-1.5v-0.8
				h1.5v-1.5h-1.5v-0.8h1.5v-1.5H55.4z M56.9,35.2h-1.5v1.5h1.5V35.2z"/>
			<path class="st5" d="M47.3,25.4c3.8,0,7.2,2,9.1,5.3l0,0l-4.6,2.7c-0.9-1.6-2.6-2.6-4.5-2.6h-0.1C44.4,30.7,42,33,42,36
				s2.3,5.3,5.3,5.3c1.9,0,3.7-1,4.6-2.7l0,0l4.6,2.7c-1.9,3.2-5.3,5.2-9,5.3h-0.1c-5.8,0-10.5-4.7-10.6-10.5l0,0
				C36.7,30.1,41.4,25.4,47.3,25.4L47.3,25.4L47.3,25.4z"/>
		</g>
	</g>
</g>
<text transform="matrix(1 0 0 1 42.8 68.87)" class="st6 st7 st8">C#</text>
</svg>
