<?xml version="1.0" encoding="UTF-8"?>
<svg id="icon" xmlns="http://www.w3.org/2000/svg" xmlns:xlink="http://www.w3.org/1999/xlink" viewBox="0 0 94 94">
  <defs>
    <style>
      .cls-1 {
        fill: #e5e5e5;
        filter: url(#drop-shadow-2);
        font-family: JetBrainsMono-Bold, 'JetBrains Mono';
        font-size: 7px;
        font-weight: 700;
      }

      .cls-2 {
        fill: #fff;
      }

      .cls-2, .cls-3, .cls-4, .cls-5 {
        stroke-width: 0px;
      }

      .cls-3 {
        fill: #ebebeb;
      }

      .cls-4 {
        fill: #0277bd;
      }

      .cls-5 {
        fill: #212529;
        filter: url(#drop-shadow-1);
      }
    </style>
    <filter id="drop-shadow-1" filterUnits="userSpaceOnUse">
      <feOffset dx="0" dy="0"/>
      <feGaussianBlur result="blur" stdDeviation="5"/>
      <feFlood flood-color="#212529" flood-opacity=".75"/>
      <feComposite in2="blur" operator="in"/>
      <feComposite in="SourceGraphic"/>
    </filter>
    <filter id="drop-shadow-2" filterUnits="userSpaceOnUse">
      <feOffset dx="0" dy="0"/>
      <feGaussianBlur result="blur-2" stdDeviation="5"/>
      <feFlood flood-color="#212529" flood-opacity=".75"/>
      <feComposite in2="blur-2" operator="in"/>
      <feComposite in="SourceGraphic"/>
    </filter>
  </defs>
  <g>
    <rect class="cls-5" x="15" y="15" width="64" height="64" rx="5" ry="5"/>
    <text class="cls-1" transform="translate(40.97 68.87) scale(.96 1)"><tspan x="0" y="0">CSS</tspan></text>
  </g>
  <g>
    <rect class="cls-4" x="31.01" y="20" width="32" height="32" rx="7.5" ry="7.5"/>
    <path class="cls-3" d="M37.73,32.83l.36,3.99h8.94v-3.99h-9.29Z"/>
    <path class="cls-3" d="M47.02,24.75h-10.01l.36,3.99h9.65v-3.99Z"/>
    <path class="cls-3" d="M47.02,47.36v-4.15h-.02s-4.45-1.2-4.45-1.2l-.28-3.18h-4.01l.56,6.27,8.18,2.27h.02Z"/>
    <path class="cls-2" d="M51.93,36.82l-.46,5.18-4.45,1.2v4.15l8.19-2.27.06-.67.94-10.51.1-1.07.72-8.08h-10v3.99h5.63l-.36,4.09h-5.26v3.99h4.92Z"/>
  </g>
</svg>