<?xml version="1.0" encoding="UTF-8"?>
<svg id="icon" xmlns="http://www.w3.org/2000/svg" xmlns:xlink="http://www.w3.org/1999/xlink" viewBox="0 0 94 94">
  <defs>
    <style>
      .cls-1 {
        fill: #372923;
      }

      .cls-1, .cls-2, .cls-3, .cls-4, .cls-5, .cls-6, .cls-7 {
        stroke-width: 0px;
      }

      .cls-8 {
        fill: #e5e5e5;
        filter: url(#drop-shadow-2);
        font-family: JetBrainsMono-Bold, 'JetBrains Mono';
        font-size: 7px;
        font-weight: 700;
        letter-spacing: 0em;
      }

      .cls-2 {
        fill: #e1d7cb;
      }

      .cls-3 {
        fill: #382a24;
      }

      .cls-4 {
        fill: #fbfbfb;
      }

      .cls-5 {
        fill: #212529;
        filter: url(#drop-shadow-1);
      }

      .cls-6 {
        fill: #887363;
      }

      .cls-7 {
        fill: #fcfcfc;
      }
    </style>
    <filter id="drop-shadow-1" filterUnits="userSpaceOnUse">
      <feOffset dx="0" dy="0"/>
      <feGaussianBlur result="blur" stdDeviation="5"/>
      <feFlood flood-color="#212529" flood-opacity=".75"/>
      <feComposite in2="blur" operator="in"/>
      <feComposite in="SourceGraphic"/>
    </filter>
    <filter id="drop-shadow-2" filterUnits="userSpaceOnUse">
      <feOffset dx="0" dy="0"/>
      <feGaussianBlur result="blur-2" stdDeviation="5"/>
      <feFlood flood-color="#212529" flood-opacity=".75"/>
      <feComposite in2="blur-2" operator="in"/>
      <feComposite in="SourceGraphic"/>
    </filter>
  </defs>
  <rect class="cls-5" x="15" y="15" width="64" height="64" rx="5" ry="5"/>
  <g>
    <path class="cls-3" d="M45.91,20h2.17c6.14.63,10.62,3.69,13.42,9.18.83,1.83,1.33,3.74,1.5,5.74v2.17c-.63,6.14-3.69,10.62-9.18,13.42-1.83.83-3.74,1.33-5.74,1.5h-2.17c-6.14-.63-10.62-3.69-13.42-9.18-.83-1.83-1.33-3.74-1.5-5.74v-2.17c.63-6.14,3.69-10.62,9.18-13.42,1.83-.83,3.74-1.33,5.74-1.5Z"/>
    <path class="cls-2" d="M59.3,35.87c-.07-1.71-.51-3.3-1.34-4.78.16-.49.22-1.01.16-1.53-.13-.33-.38-.51-.73-.54-.55-.03-1.1-.04-1.66-.03.11-.05.24-.08.38-.1-.72-1.09-1.63-2.05-2.68-2.84-1.34-1.11-2.89-1.66-4.65-1.66-1.39.03-2.69.4-3.89,1.11-2.54,1.45-4.64,3.39-6.31,5.8-.52.06-1.04.09-1.56.1-2.71-.43-3.5.62-2.36,3.12.46.92.88,1.85,1.27,2.81-.06.76-.1,1.53-.13,2.29-.83,1.33-1.6,2.69-2.33,4.08-.04.08-.08.08-.13,0-2.08-3.9-2.54-7.98-1.37-12.24,1.75-5.24,5.25-8.73,10.49-10.49,5.69-1.5,10.74-.33,15.17,3.51,4.06,3.96,5.64,8.76,4.75,14.37-.73,3.64-2.48,6.66-5.26,9.08-.14.12-.29.21-.45.26-.4-1.19-.32-2.34.22-3.47.81-1.32,1.45-2.73,1.91-4.21.46-1.53.61-3.08.48-4.65Z"/>
    <path class="cls-7" d="M53.43,26.06c1.05.78,1.96,1.74,2.68,2.84-.13.01-.26.04-.38.1-1.09.07-2.17.31-3.19.7-1,.05-2,.08-3,.1-.25.1-.51.11-.76.03-.72-.03-1.31-.32-1.79-.86-.71-.43-1.45-.52-2.23-.26-.55.38-.75.9-.61,1.56.34.6.43,1.24.29,1.91-.06.1-.11.21-.16.32-1.77,1.62-3.35,3.44-4.72,5.42-.4.7-.73,1.45-.96,2.23-.13,1.11.33,1.86,1.37,2.26.57.23,1.17.38,1.78.45-.51.39-1.08.51-1.72.38-.8-.14-1.59-.39-2.33-.73-.76,1.38-1.48,2.78-2.14,4.21-.43-.48-.84-.97-1.24-1.47-.04-.08-.04-.18,0-.25.54-1.28,1.14-2.53,1.78-3.76.33.59.81.98,1.43,1.18-.5-.48-.81-1.06-.92-1.75-.12-1.09,0-2.2.32-3.25,1.28-4.1,3.58-7.49,6.92-10.17,1.44-1.03,3.03-1.69,4.78-1.98,1.66-.11,3.25.15,4.78.8h0Z"/>
    <path class="cls-3" d="M48.78,29.82c-.89.32-1.77.69-2.61,1.12-.58.43-1.15.89-1.69,1.37-.03-.04-.04-.08-.03-.13.15-.67.05-1.31-.29-1.91-.15-.66.05-1.18.61-1.56.78-.26,1.52-.18,2.23.26.47.54,1.07.83,1.79.86Z"/>
    <path class="cls-1" d="M55.73,28.99c.55-.01,1.1,0,1.66.03.36.04.6.22.73.54.06.52,0,1.04-.16,1.53-.39,1.09-.99,2.06-1.78,2.9-.56.38-1.15.44-1.79.19-1.4-.42-2.51-1.21-3.35-2.39-.27-.67-.08-1.19.54-1.56.32-.18.64-.36.96-.54,1.02-.39,2.1-.63,3.19-.7Z"/>
    <path class="cls-6" d="M52.54,29.69c-.32.18-.64.36-.96.54-.63.37-.81.89-.54,1.56.83,1.18,1.95,1.97,3.35,2.39.63.25,1.23.19,1.79-.19.8-.84,1.39-1.81,1.78-2.9.82,1.48,1.27,3.08,1.34,4.78-.31,1-.72,1.96-1.24,2.87-.24.35-.51.68-.8.99-.31.21-.6.43-.89.67l-.06-.1c.29-1.07.37-2.18.22-3.28-.05-.29-.16-.57-.32-.83-.1,1.42-.47,2.8-1.08,4.08-.82,1.54-2.08,2.08-3.79,1.62-2.55-.73-4.79-1.99-6.73-3.79.12.77.34,1.52.64,2.23.39,1.19.5,2.4.32,3.63-.06.26-.14.52-.25.77-.86,1.4-1.61,2.87-2.23,4.4-.21.56-.38,1.14-.51,1.72-.03.06-.09.11-.16.13-2.66-.83-4.93-2.26-6.82-4.27.66-1.43,1.37-2.83,2.14-4.21.74.35,1.52.59,2.33.73.64.13,1.21,0,1.72-.38-.61-.07-1.21-.22-1.78-.45-1.04-.4-1.5-1.16-1.37-2.26.23-.78.55-1.53.96-2.23,1.36-1.98,2.94-3.8,4.72-5.42.05-.11.1-.22.16-.32,0,.05,0,.09.03.13.54-.48,1.11-.94,1.69-1.37.85-.43,1.72-.8,2.61-1.12.26.08.51.07.76-.03,1-.02,2-.05,3-.1Z"/>
    <path class="cls-4" d="M56.88,40.97c-.35,1.49-.85,2.94-1.5,4.33-.13.25-.34.42-.61.51l-.06-.1c.28-.77.41-1.58.38-2.39-.23.96-.58,1.88-1.05,2.74-.49.2-.99.23-1.5.1-.16-.2-.28-.43-.35-.67-.16-.8-.26-1.61-.29-2.42,2.02.14,3.68-.56,4.97-2.1h0Z"/>
  </g>
  <text class="cls-8" transform="translate(32.79 68.87) scale(.96 1)"><tspan x="0" y="0">DBeaver</tspan></text>
</svg>