<?xml version="1.0" encoding="UTF-8"?>
<svg id="icon" xmlns="http://www.w3.org/2000/svg" xmlns:xlink="http://www.w3.org/1999/xlink" viewBox="0 0 94 94">
  <defs>
    <style>
      .cls-1 {
        fill: #e5e5e5;
        filter: url(#drop-shadow-2);
        font-family: JetBrainsMono-Bold, 'JetBrains Mono';
        font-size: 7px;
        font-weight: 700;
        letter-spacing: 0em;
      }

      .cls-2 {
        fill: #fff;
      }

      .cls-2, .cls-3, .cls-4 {
        stroke-width: 0px;
      }

      .cls-3 {
        fill: #2396ed;
      }

      .cls-4 {
        fill: #212529;
        filter: url(#drop-shadow-1);
      }
    </style>
    <filter id="drop-shadow-1" filterUnits="userSpaceOnUse">
      <feOffset dx="0" dy="0"/>
      <feGaussianBlur result="blur" stdDeviation="5"/>
      <feFlood flood-color="#212529" flood-opacity=".75"/>
      <feComposite in2="blur" operator="in"/>
      <feComposite in="SourceGraphic"/>
    </filter>
    <filter id="drop-shadow-2" filterUnits="userSpaceOnUse">
      <feOffset dx="0" dy="0"/>
      <feGaussianBlur result="blur-2" stdDeviation="5"/>
      <feFlood flood-color="#212529" flood-opacity=".75"/>
      <feComposite in2="blur-2" operator="in"/>
      <feComposite in="SourceGraphic"/>
    </filter>
  </defs>
  <rect class="cls-4" x="15" y="15" width="64" height="64" rx="5" ry="5"/>
  <g>
    <rect class="cls-3" x="31" y="19.97" width="32" height="32" rx="7.5" ry="7.5"/>
    <path class="cls-2" d="M48.65,35.24h2.59v-2.34h-2.59v2.34ZM45.57,35.24h2.59v-2.34h-2.59v2.34ZM42.54,35.24h2.59v-2.34h-2.59v2.34ZM39.52,35.24h2.53v-2.34h-2.53v2.34ZM36.44,35.24h2.59v-2.34h-2.59v2.34ZM39.52,32.4h2.53v-2.34h-2.53v2.34ZM42.54,32.4h2.59v-2.34h-2.59v2.34ZM45.57,32.4h2.59v-2.34h-2.59v2.34ZM45.57,29.56h2.59v-2.34h-2.59v2.34ZM59.5,34.19s-1.11-1.05-3.39-.68c-.25-1.79-2.16-2.84-2.16-2.84,0,0-1.79,2.16-.49,4.56-.37.18-.99.43-1.91.43h-16.96c-.31,1.17-.31,8.94,8.2,8.94,6.1,0,10.67-2.84,12.82-8.02,3.21.25,3.88-2.4,3.88-2.4Z"/>
  </g>
  <text class="cls-1" transform="translate(34.82 68.87) scale(.96 1)"><tspan x="0" y="0">Docker</tspan></text>
</svg>