<?xml version="1.0" encoding="utf-8"?>
<!-- Generator: Adobe Illustrator 28.2.0, SVG Export Plug-In . SVG Version: 6.00 Build 0)  -->
<svg version="1.1" id="icon" xmlns="http://www.w3.org/2000/svg" xmlns:xlink="http://www.w3.org/1999/xlink" x="0px" y="0px"
	 viewBox="0 0 94 94" style="enable-background:new 0 0 94 94;" xml:space="preserve">
<style type="text/css">
	.st0{fill:#212529;}
	.st1{fill:#512BD4;}
	.st2{fill:#FFFFFF;}
	.st3{fill:#E5E5E5;}
	.st4{font-family:'JetBrainsMono-Bold';}
	.st5{font-size:7px;}
</style>
<path class="st0" d="M20,15h54c2.8,0,5,2.2,5,5v54c0,2.8-2.2,5-5,5H20c-2.8,0-5-2.2-5-5V20C15,17.2,17.2,15,20,15z"/>
<g>
	<path class="st1" d="M38.5,20h17c4.1,0,7.5,3.4,7.5,7.5v17c0,4.1-3.4,7.5-7.5,7.5h-17c-4.1,0-7.5-3.4-7.5-7.5v-17
		C31,23.3,34.4,20,38.5,20L38.5,20z"/>
	<path class="st2" d="M34,41.1c-0.3,0-0.5-0.1-0.7-0.3c-0.2-0.2-0.3-0.4-0.3-0.7s0.1-0.5,0.3-0.7c0.2-0.2,0.4-0.3,0.7-0.3
		s0.5,0.1,0.7,0.3c0.2,0.2,0.3,0.4,0.3,0.7s-0.1,0.5-0.3,0.7C34.5,41,34.3,41.1,34,41.1z"/>
	<path class="st2" d="M45.2,40.9h-1.8l-4.8-7.4c-0.1-0.2-0.2-0.4-0.3-0.6h0c0,0.2,0.1,0.7,0.1,1.4v6.6h-1.6V30.8h1.9l4.6,7.2
		c0.2,0.3,0.3,0.5,0.4,0.6h0c0-0.3-0.1-0.7-0.1-1.4v-6.5h1.6L45.2,40.9L45.2,40.9z"/>
	<path class="st2" d="M53,40.9h-5.6V30.8h5.4v1.4h-3.7v2.9h3.4v1.4h-3.4v3h4V40.9L53,40.9z"/>
	<path class="st2" d="M61,32.3h-2.9v8.7h-1.7v-8.7h-2.9v-1.4H61C61,30.8,61,32.3,61,32.3z"/>
</g>
<text transform="matrix(1 0 0 1 38.6 68.87)" class="st3 st4 st5">.NET</text>
</svg>
