<?xml version="1.0" encoding="UTF-8"?>
<svg id="icon" xmlns="http://www.w3.org/2000/svg" xmlns:xlink="http://www.w3.org/1999/xlink" viewBox="0 0 94 94">
  <defs>
    <style>
      .cls-1 {
        fill: #e14e1d;
      }

      .cls-1, .cls-2, .cls-3, .cls-4 {
        stroke-width: 0px;
      }

      .cls-5 {
        fill: #e5e5e5;
        filter: url(#drop-shadow-2);
        font-family: JetBrainsMono-Bold, 'JetBrains Mono';
        font-size: 7px;
        font-weight: 700;
      }

      .cls-2 {
        fill: #fff;
      }

      .cls-3 {
        fill: #ebebeb;
      }

      .cls-4 {
        fill: #212529;
        filter: url(#drop-shadow-1);
      }
    </style>
    <filter id="drop-shadow-1" filterUnits="userSpaceOnUse">
      <feOffset dx="0" dy="0"/>
      <feGaussianBlur result="blur" stdDeviation="5"/>
      <feFlood flood-color="#212529" flood-opacity=".75"/>
      <feComposite in2="blur" operator="in"/>
      <feComposite in="SourceGraphic"/>
    </filter>
    <filter id="drop-shadow-2" filterUnits="userSpaceOnUse">
      <feOffset dx="0" dy="0"/>
      <feGaussianBlur result="blur-2" stdDeviation="5"/>
      <feFlood flood-color="#212529" flood-opacity=".75"/>
      <feComposite in2="blur-2" operator="in"/>
      <feComposite in="SourceGraphic"/>
    </filter>
  </defs>
  <g>
    <rect class="cls-4" x="15" y="15" width="64" height="64" rx="5" ry="5"/>
    <text class="cls-5" transform="translate(38.96 68.87) scale(.96 1)"><tspan x="0" y="0">HTML</tspan></text>
  </g>
  <g>
    <rect class="cls-1" x="31" y="20" width="32" height="32" rx="7.5" ry="7.5"/>
    <path class="cls-2" d="M37,24.75l1.08,12.07h13.84l-.46,5.18-4.46,1.2-4.45-1.2-.3-3.33h-4.01l.57,6.41,8.18,2.27,8.19-2.27,1.1-12.26h-14.55l-.37-4.09h15.28l.36-3.99h-20Z"/>
    <path class="cls-3" d="M47,24.75h-10l1.08,12.07h8.92v-3.99h-5.27l-.37-4.09h5.64v-3.99Z"/>
    <path class="cls-3" d="M47,43.21h0s-4.45-1.2-4.45-1.2l-.3-3.33h-4.01l.57,6.41,8.18,2.27h0v-4.16Z"/>
  </g>
</svg>