<?xml version="1.0" encoding="UTF-8"?>
<svg id="icon" xmlns="http://www.w3.org/2000/svg" xmlns:xlink="http://www.w3.org/1999/xlink" viewBox="0 0 94 94">
  <defs>
    <style>
      .cls-1 {
        fill: #e5e5e5;
        filter: url(#drop-shadow-2);
        font-family: JetBrainsMono-Bold, 'JetBrains Mono';
        font-size: 7px;
        font-weight: 700;
      }

      .cls-2, .cls-3, .cls-4, .cls-5 {
        stroke-width: 0px;
      }

      .cls-3 {
        fill: none;
      }

      .cls-4 {
        fill: #f7df1e;
      }

      .cls-6 {
        clip-path: url(#clippath);
      }

      .cls-5 {
        fill: #212529;
        filter: url(#drop-shadow-1);
      }
    </style>
    <filter id="drop-shadow-1" filterUnits="userSpaceOnUse">
      <feOffset dx="0" dy="0"/>
      <feGaussianBlur result="blur" stdDeviation="5"/>
      <feFlood flood-color="#212529" flood-opacity=".75"/>
      <feComposite in2="blur" operator="in"/>
      <feComposite in="SourceGraphic"/>
    </filter>
    <clipPath id="clippath">
      <rect class="cls-3" x="31" y="20" width="32" height="32"/>
    </clipPath>
    <filter id="drop-shadow-2" filterUnits="userSpaceOnUse">
      <feOffset dx="0" dy="0"/>
      <feGaussianBlur result="blur-2" stdDeviation="5"/>
      <feFlood flood-color="#212529" flood-opacity=".75"/>
      <feComposite in2="blur-2" operator="in"/>
      <feComposite in="SourceGraphic"/>
    </filter>
  </defs>
  <rect class="cls-5" x="15" y="15" width="64" height="64" rx="5" ry="5"/>
  <g class="cls-6">
    <g>
      <path class="cls-4" d="M58.2,20h-22.4c-2.65,0-4.8,2.15-4.8,4.8v22.4c0,2.65,2.15,4.8,4.8,4.8h22.4c2.65,0,4.8-2.15,4.8-4.8v-22.4c0-2.65-2.15-4.8-4.8-4.8Z"/>
      <path class="cls-2" d="M51.25,43.12c.62,1.06,1.5,1.81,2.94,1.81,1.25,0,2.06-.63,2.06-1.5,0-1-.81-1.38-2.19-2l-.75-.31c-2.19-.94-3.62-2.06-3.62-4.5,0-2.25,1.69-4,4.37-4,1.94,0,3.31.69,4.25,2.44l-2.31,1.5c-.5-.94-1.06-1.31-1.94-1.31s-1.44.56-1.44,1.31c0,.88.56,1.25,1.88,1.81l.75.31c2.56,1.12,4,2.19,4,4.75s-2.12,4.19-5,4.19-4.62-1.31-5.5-3.06l2.5-1.44ZM40.62,43.38c.5.81.88,1.56,1.94,1.56,1,0,1.62-.38,1.62-1.88v-10.37h3v10.25c0,3.12-1.81,4.5-4.5,4.5-2.44,0-3.81-1.25-4.5-2.75l2.44-1.31Z"/>
    </g>
  </g>
  <text class="cls-1" transform="translate(26 68.87)"><tspan x="0" y="0">JavaScript</tspan></text>
</svg>