<?xml version="1.0" encoding="utf-8"?>
<!-- Generator: Adobe Illustrator 28.2.0, SVG Export Plug-In . SVG Version: 6.00 Build 0)  -->
<svg version="1.1" id="icon" xmlns="http://www.w3.org/2000/svg" xmlns:xlink="http://www.w3.org/1999/xlink" x="0px" y="0px"
	 viewBox="0 0 94 94" style="enable-background:new 0 0 94 94;" xml:space="preserve">
<style type="text/css">
	.st0{fill:#212529;}
	.st1{fill:#E5E5E5;}
	.st2{font-family:'JetBrainsMono-Bold';}
	.st3{font-size:7px;}
	.st4{fill:#FFFFFF;}
	.st5{fill:#F58219;}
</style>
<path class="st0" d="M20,15h54c2.8,0,5,2.2,5,5v54c0,2.8-2.2,5-5,5H20c-2.8,0-5-2.2-5-5V20C15,17.2,17.2,15,20,15z"/>
<text transform="matrix(1 0 0 1 38.6 68.87)" class="st1 st2 st3">Java</text>
<g>
	<path class="st4" d="M42.7,44.7c0,0-1.3,0.8,0.9,1c2.6,0.4,3.8,0.3,6.7-0.3c0,0,0.8,0.5,1.8,0.9C45.8,48.9,37.8,46.1,42.7,44.7z
		 M41.9,41.3c0,0-1.3,1,0.8,1.3c2.7,0.3,4.9,0.4,8.6-0.4c0,0,0.5,0.5,1.3,0.8C45,45.1,36.5,43,41.9,41.3L41.9,41.3z M56.7,47.4
		c0,0,0.9,0.8-1,1.3c-3.6,1-15,1.4-18.2,0c-1.2-0.5,1-1.2,1.7-1.3c0.6-0.1,1-0.1,1-0.1c-1.3-0.9-8.2,1.8-3.6,2.6
		C49.5,51.9,60,48.8,56.7,47.4L56.7,47.4z M43.3,37.7c0,0-5.9,1.4-2,1.9c1.7,0.3,4.7,0.1,7.7,0c2.4-0.3,4.9-0.6,4.9-0.6
		s-0.9,0.4-1.4,0.8c-5.9,1.5-17.3,0.9-14.1-0.8C41,37.5,43.3,37.7,43.3,37.7L43.3,37.7z M53.7,43.4c6-3.1,3.2-6.1,1.3-5.8
		c-0.5,0.1-0.6,0.3-0.6,0.3s0.1-0.4,0.5-0.4c3.8-1.3,6.8,4-1.3,6.1C53.6,43.7,53.7,43.6,53.7,43.4L53.7,43.4z M43.8,51.9
		c5.8,0.4,14.6-0.3,14.9-2.9c0,0-0.4,1-4.7,1.9c-4.9,0.9-11,0.8-14.6,0.3C39.4,51.1,40.1,51.8,43.8,51.9L43.8,51.9z"/>
	<path class="st5" d="M50.1,20c0,0,3.3,3.3-3.2,8.5c-5.1,4.1-1.2,6.5,0,9.1c-3.1-2.7-5.3-5.1-3.7-7.4C45.4,26.9,51.4,25.2,50.1,20z
		 M48.3,35.4c1.5,1.8-0.4,3.3-0.4,3.3s4-2,2.2-4.5c-1.7-2.4-2.9-3.6,4-7.6C54.1,26.5,43.1,29.3,48.3,35.4L48.3,35.4z"/>
</g>
</svg>
