<?xml version="1.0" encoding="UTF-8"?>
<svg id="Camada_1" data-name="Camada 1" xmlns="http://www.w3.org/2000/svg" xmlns:xlink="http://www.w3.org/1999/xlink" viewBox="0 0 94 94">
  <defs>
    <style>
      .cls-1 {
        fill: #e5e5e5;
        filter: url(#drop-shadow-2);
        font-family: JetBrainsMono-Bold, 'JetBrains Mono';
        font-size: 7px;
        font-weight: 700;
      }

      .cls-2 {
        fill: #fff;
      }

      .cls-2, .cls-3, .cls-4 {
        stroke-width: 0px;
      }

      .cls-3 {
        fill: #212529;
        filter: url(#drop-shadow-1);
      }

      .cls-4 {
        fill: #99424f;
      }
    </style>
    <filter id="drop-shadow-1" filterUnits="userSpaceOnUse">
      <feOffset dx="0" dy="0"/>
      <feGaussianBlur result="blur" stdDeviation="5"/>
      <feFlood flood-color="#212529" flood-opacity=".75"/>
      <feComposite in2="blur" operator="in"/>
      <feComposite in="SourceGraphic"/>
    </filter>
    <filter id="drop-shadow-2" filterUnits="userSpaceOnUse">
      <feOffset dx="0" dy="0"/>
      <feGaussianBlur result="blur-2" stdDeviation="5"/>
      <feFlood flood-color="#212529" flood-opacity=".75"/>
      <feComposite in2="blur-2" operator="in"/>
      <feComposite in="SourceGraphic"/>
    </filter>
  </defs>
  <rect class="cls-3" x="15" y="15" width="64" height="64" rx="5" ry="5"/>
  <g>
    <rect class="cls-4" x="31" y="19.99" width="32" height="32" rx="7.5" ry="7.5"/>
    <path class="cls-2" d="M57.67,35.8c0-1.51-1.03-2.77-2.42-3.13l3.11-9.18h-15.42l3.12,9.21c-1.35.39-2.34,1.64-2.34,3.11,0,1.09.54,2.05,1.37,2.64-.33.46-.7.89-1.13,1.3-.8.75-1.69,1.33-2.66,1.72-.87-.59-1.24-1.62-.9-2.55,1.32-.41,2.29-1.64,2.29-3.1,0-1.79-1.45-3.24-3.24-3.24s-3.24,1.45-3.24,3.24c0,.88.36,1.69.94,2.27-.05.1-.1.2-.15.31-.48,1-1.04,2.13-1.24,3.39-.42,2.53.27,4.57,1.93,5.72.93.64,1.96.97,3.07.97,1.9,0,3.84-.96,5.7-1.88,1.33-.66,2.71-1.35,4.06-1.68.5-.12,1.02-.2,1.57-.27,1.11-.16,2.27-.33,3.3-.93,1.21-.7,2.03-1.87,2.27-3.22.18-1.03,0-2.08-.46-2.99.31-.5.48-1.09.48-1.72h-.01ZM56.26,35.8c0,1.01-.82,1.82-1.82,1.82s-1.82-.82-1.82-1.82c0-.33.09-.64.24-.9.06-.1.13-.2.2-.29s.16-.17.25-.24h0c.06-.05.12-.09.19-.14h0s.06-.04.09-.05h.02s.07-.03.1-.04c.04,0,.07-.03.1-.04h.02s.06-.02.09-.03h.03s.07,0,.1-.02h0l.11-.02h.46c.06,0,.12,0,.17.03.83.17,1.45.91,1.45,1.8h0l.02-.06ZM44.95,24.94h11.39l-2.61,7.71c-.11.02-.22.06-.33.09l-2.75-5.61-2.76,5.57c-.11-.04-.22-.06-.34-.08l-2.6-7.69h0ZM50.13,35.17c-.14-.68-.48-1.29-.98-1.74l1.5-3.03,1.51,3.09c-.45.45-.77,1.02-.9,1.67h-1.13ZM46.5,34.03s.07,0,.1-.02h.02s.06,0,.09,0h.5s.05,0,.08,0h.03s.07,0,.1.02h0s.06,0,.09.03h.03s.05,0,.07.03h.02s.06.02.09.04h0s.07.03.09.05h0s.06.04.09.05h.01s.05.04.08.05h0c.09.07.17.14.25.22h0c.07.09.14.17.2.27.19.29.3.63.3,1,0,1.01-.82,1.82-1.82,1.82s-1.82-.82-1.82-1.82c0-.85.58-1.56,1.38-1.77h0l.02.03ZM39.38,33.98c1.01,0,1.82.82,1.82,1.82s-.82,1.82-1.82,1.82-1.82-.82-1.82-1.82.82-1.82,1.82-1.82ZM56.21,40.25c-.16.93-.73,1.74-1.57,2.22-.79.46-1.76.6-2.78.75-.56.08-1.14.17-1.71.3-1.51.37-2.95,1.09-4.36,1.79-1.8.89-3.49,1.73-5.06,1.73-.82,0-1.55-.23-2.24-.72-1.59-1.1-1.51-3.16-1.32-4.29.17-1.06.66-2.05,1.12-3,.03-.06.05-.11.08-.17.16.06.33.1.5.13-.28,1.53.51,3.12,2.03,3.9l.28.14.3-.11c1.27-.45,2.44-1.18,3.47-2.16.59-.55,1.09-1.14,1.51-1.79.17.03.33.04.5.04,1.51,0,2.77-1.04,3.13-2.42h1.22c.36,1.4,1.63,2.42,3.13,2.42.6,0,1.16-.17,1.64-.45.19.54.25,1.11.14,1.67h0v.02Z"/>
  </g>
  <text class="cls-1" transform="translate(38.6 69.08)"><tspan x="0" y="0">Jest</tspan></text>
</svg>