<?xml version="1.0" encoding="UTF-8"?>
<svg id="icon" xmlns="http://www.w3.org/2000/svg" xmlns:xlink="http://www.w3.org/1999/xlink" viewBox="0 0 94 94">
  <defs>
    <style>
      .cls-1 {
        fill: #e5e5e5;
        filter: url(#drop-shadow-2);
        font-family: JetBrainsMono-Bold, 'JetBrains Mono';
        font-size: 7px;
        font-weight: 700;
        letter-spacing: 0em;
      }

      .cls-2 {
        fill: #ffc107;
      }

      .cls-2, .cls-3, .cls-4, .cls-5, .cls-6, .cls-7, .cls-8 {
        stroke-width: 0px;
      }

      .cls-3 {
        fill: #634703;
      }

      .cls-4 {
        fill: #263238;
      }

      .cls-5 {
        fill: #eceff1;
      }

      .cls-6 {
        fill: #212529;
        filter: url(#drop-shadow-1);
      }

      .cls-7 {
        fill: #455a64;
      }

      .cls-8 {
        fill: #212121;
      }
    </style>
    <filter id="drop-shadow-1" filterUnits="userSpaceOnUse">
      <feOffset dx="0" dy="0"/>
      <feGaussianBlur result="blur" stdDeviation="5"/>
      <feFlood flood-color="#212529" flood-opacity=".75"/>
      <feComposite in2="blur" operator="in"/>
      <feComposite in="SourceGraphic"/>
    </filter>
    <filter id="drop-shadow-2" filterUnits="userSpaceOnUse">
      <feOffset dx="0" dy="0"/>
      <feGaussianBlur result="blur-2" stdDeviation="5"/>
      <feFlood flood-color="#212529" flood-opacity=".75"/>
      <feComposite in2="blur-2" operator="in"/>
      <feComposite in="SourceGraphic"/>
    </filter>
  </defs>
  <rect class="cls-6" x="15" y="15" width="64" height="64" rx="5" ry="5"/>
  <g>
    <path class="cls-5" d="M41.74,45.01l3.07,1.7h4.64l4.34-3.26,1.94-5.11-4.49-5.4-1.27-3.03-6.21.22.07,1.7-1.2,2.22-1.87,3.63-.37,3.03,1.35,4.29Z"/>
    <path class="cls-4" d="M54.38,34.35c-1.2-1.7-2.17-2.74-2.69-4.89-.52-2.15.15-1.55-.3-3.4-.22-.96-.6-1.63-.97-2.15-.45-.52-.97-.81-1.27-.89-.67-.37-2.24-.96-4.19.07-2.02,1.04-1.79,3.26-1.42,7.77,0,.3-.07.67-.22.96-.3.67-.82,1.26-1.27,1.78-.52.74-1.05,1.48-1.42,2.29-.9,1.7-1.72,3.85-1.5,4.66.37-.07,5.09,7.03,5.09,7.18.3-.07,1.57-.07,2.69-.07,1.57-.07,2.47-.15,3.74.15,0-.22-.07-.44-.07-.67,0-.44.07-.81.15-1.33.07-.37.15-.74.22-1.18-.75.67-2.09,1.41-3.37,1.63-1.12.22-2.99-.15-3.89-1.26.07,0,.22,0,.3-.07.22-.07.45-.15.52-.3.22-.37.07-.74-.07-.96-.15-.22-1.27-1.04-1.79-1.48-.52-.44-.82-.67-1.12-.96,0,0-.45-.44-.6-.59-.15-.15-.22-.3-.3-.37-.15-.37-.22-.81-.15-1.41.07-.81.37-1.48.75-2.22.15-.3.52-.89.52-.89,0,0-1.27,3.11-.6,4.07,0,0,.07-.96.37-1.92.22-.67.6-1.63,1.05-2.15.45-.52,1.57-2.44,1.65-3.63,0-.52.07-1.04.07-1.41-.3-.3,4.94-1.04,5.24-.22.07.3,1.12,2.96,1.72,4.37.3.67.67,1.26.9,2,.22.81.37,1.92.37,3.03,0,.22,0,.59-.07.96.15,0,3.07-3.11-.37-5.7,0,0,2.09.96,2.17,2.89.07,1.55-.6,2.81-.75,3.03.07,0,1.57.67,1.65.67.3,0,.9-.22.9-.22.07-.22.3-.81.3-1.04.52-1.7-.75-4.44-1.94-6.14h0Z"/>
    <path class="cls-5" d="M44.88,29.46c.54,0,.97-.66.97-1.48s-.44-1.48-.97-1.48-.97.66-.97,1.48.44,1.48.97,1.48Z"/>
    <path class="cls-5" d="M48.25,29.61c.7,0,1.27-.76,1.27-1.7s-.57-1.7-1.27-1.7-1.27.76-1.27,1.7.57,1.7,1.27,1.7Z"/>
    <path class="cls-8" d="M45.43,28.09c-.06-.49-.35-.85-.63-.82-.29.04-.47.46-.41.95.06.49.35.85.63.82.29-.04.47-.46.41-.95Z"/>
    <path class="cls-8" d="M48.18,29.17c.41,0,.75-.43.75-.96s-.33-.96-.75-.96-.75.43-.75.96.33.96.75.96Z"/>
    <path class="cls-2" d="M58.12,44.49c-.3-.15-.82-.37-1.27-1.04-.22-.37-.15-1.41-.52-1.85-.22-.3-.52-.15-.6-.15-.67.15-2.24,1.18-3.29,0-.15-.15-.37-.37-.75-.37s-.52.15-.67.44-.15.52-.15,1.26c0,.59,0,1.26-.07,1.78-.15,1.26-.37,2-.37,2.74,0,.81.22,1.33.52,1.55.22.22.6.37,1.42.37s1.35-.3,1.87-.81c.37-.37.67-.52,1.72-1.26.82-.52,2.09-1.18,2.32-1.41.15-.15.37-.22.37-.67,0-.37-.3-.52-.52-.59h0Z"/>
    <path class="cls-2" d="M43.09,44.71c-.75-1.18-.82-1.41-1.35-2.15-.45-.74-1.42-2.15-2.02-2.15-.45,0-.67.22-.97.52-.3.3-.6.96-1.12,1.33-.45.37-1.72.3-2.02.74-.3.44.3,1.11.3,2.22,0,.44-.37.74-.45,1.04-.07.37-.15.59,0,.89.3.44.67.59,3.22,1.11,1.35.3,2.62,1.04,3.44,1.11.82.07,2.24,0,2.24-2,.07-1.18-.6-1.48-1.27-2.66Z"/>
    <path class="cls-2" d="M44.51,31.32c-.45-.3-.82-.59-.82-1.04s.3-.59.75-.96c.07-.07.9-.81,1.72-.81s1.79.52,2.17.67c.67.15,1.35.3,1.27.81-.07.74-.15.89-.9,1.26-.52.15-1.5.96-2.17.96-.3,0-.75,0-1.05-.07-.22-.07-.6-.44-.97-.81h0Z"/>
    <path class="cls-3" d="M44.36,30.72c.15.15.37.3.6.37.15.07.37.15.37.15h.67c.37,0,.9-.15,1.42-.44.52-.22.6-.37.97-.52.37-.22.75-.44.6-.52-.15-.07-.3,0-.82.3-.45.3-.82.44-1.27.67-.22.07-.52.22-.75.22h-.67c-.22,0-.37-.07-.6-.15-.15-.07-.22-.15-.3-.15-.15-.07-.45-.37-.6-.44,0,0-.15,0-.07.07.22.22.3.3.45.44Z"/>
    <path class="cls-3" d="M46.6,29.09c.07.15.22.15.3.22.07.07.15.07.15.07.07-.07,0-.22-.07-.22,0-.15-.37-.15-.37-.07h0Z"/>
    <path class="cls-3" d="M45.41,29.24c0,.07.15.15.15.07.07-.07.15-.15.22-.15.15-.07.07-.15-.15-.15-.15.07-.15.15-.22.22h0Z"/>
    <path class="cls-7" d="M52.66,42.34v.22c.15.3.52.37.82.37.45,0,.9-.3,1.12-.59,0-.07.07-.15.15-.22.15-.22.22-.37.3-.44,0,0-.07-.07-.07-.15-.07-.15-.3-.3-.6-.37-.22-.07-.6-.15-.75-.15-.67-.07-1.05.15-1.27.37,0,0,.07,0,.07.07.15.15.22.3.22.52.07.15,0,.22,0,.37h0Z"/>
  </g>
  <text class="cls-1" transform="translate(36.86 68.94) scale(.96 1)"><tspan x="0" y="0">Linux</tspan></text>
</svg>