<?xml version="1.0" encoding="UTF-8"?>
<svg id="Camada_1" data-name="Camada 1" xmlns="http://www.w3.org/2000/svg" xmlns:xlink="http://www.w3.org/1999/xlink" viewBox="0 0 94 94">
  <defs>
    <style>
      .cls-1 {
        fill: url(#Gradiente_sem_nome_2);
      }

      .cls-1, .cls-2, .cls-3, .cls-4 {
        stroke-width: 0px;
      }

      .cls-5 {
        fill: #e5e5e5;
        filter: url(#drop-shadow-2);
        font-family: JetBrainsMono-Bold, 'JetBrains Mono';
        font-size: 7px;
        font-weight: 700;
      }

      .cls-2 {
        fill: url(#Gradiente_sem_nome_4);
      }

      .cls-3 {
        fill: #212529;
        filter: url(#drop-shadow-1);
      }

      .cls-4 {
        fill: url(#Gradiente_sem_nome_3);
      }
    </style>
    <filter id="drop-shadow-1" filterUnits="userSpaceOnUse">
      <feOffset dx="0" dy="0"/>
      <feGaussianBlur result="blur" stdDeviation="5"/>
      <feFlood flood-color="#212529" flood-opacity=".75"/>
      <feComposite in2="blur" operator="in"/>
      <feComposite in="SourceGraphic"/>
    </filter>
    <linearGradient id="Gradiente_sem_nome_4" data-name="Gradiente sem nome 4" x1="4308.64" y1="-2693.19" x2="4518.81" y2="-2817.37" gradientTransform="translate(-257.66 -282.96) scale(1 -1)" gradientUnits="userSpaceOnUse">
      <stop offset="0" stop-color="#909ca9"/>
      <stop offset="1" stop-color="#ededee"/>
    </linearGradient>
    <linearGradient id="Gradiente_sem_nome_2" data-name="Gradiente sem nome 2" x1="21236.71" y1="-305.92" x2="21405.82" y2="-305.92" gradientTransform="translate(-257.66 -282.96) scale(1 -1)" gradientUnits="userSpaceOnUse">
      <stop offset="0" stop-color="#939fab"/>
      <stop offset="1" stop-color="#dcdee1"/>
    </linearGradient>
    <radialGradient id="Gradiente_sem_nome_3" data-name="Gradiente sem nome 3" cx="308.16" cy="430.28" fx="308.16" fy="430.28" r="2.82" gradientTransform="translate(-257.66 -394.96)" gradientUnits="userSpaceOnUse">
      <stop offset="0" stop-color="#ee352c"/>
      <stop offset="1" stop-color="#a91d22"/>
    </radialGradient>
    <filter id="drop-shadow-2" filterUnits="userSpaceOnUse">
      <feOffset dx="0" dy="0"/>
      <feGaussianBlur result="blur-2" stdDeviation="5"/>
      <feFlood flood-color="#212529" flood-opacity=".75"/>
      <feComposite in2="blur-2" operator="in"/>
      <feComposite in="SourceGraphic"/>
    </filter>
  </defs>
  <rect class="cls-3" x="15" y="15" width="64" height="64" rx="5" ry="5"/>
  <g>
    <path class="cls-2" d="M50.83,34.88l-6.41,2.09-5.57,2.46-1.56.41c-.41.39-.83.78-1.26,1.15-.49.43-.95.81-1.31,1.09-.39.31-.97.89-1.27,1.26-.44.55-.79,1.14-.94,1.59-.27.81-.14,1.64.38,2.4.66.97,1.97,1.96,3.5,2.63.78.34,2.09.78,3.08,1.03,1.64.42,4.82.87,6.57.93h.85s.31-.54.63-1.19c1.07-2.19,1.85-4.25,2.27-6.01.25-1.07.45-2.48.58-4.17.03-.47.05-2.04.02-2.58-.04-.87-.12-1.58-.24-2.27-.02-.1-.02-.19,0-.2.02,0,.08-.03.87-.26l-.16-.38h0s-.02.02-.02.02ZM49.37,35.74c.06,0,.21,1.49.25,2.43v.33s-.82-.46-1.38-.81c-.48-.3-1.4-.92-1.55-1.03-.05-.03-.04-.04.35-.17.67-.23,2.27-.74,2.32-.74h.01ZM46.1,36.81s.15.06.42.23c1,.62,2.35,1.38,2.94,1.63.18.08.2.05-.21.33-.88.6-1.98,1.19-3.33,1.79-.24.11-.44.19-.44.19,0,0,.02-.12.06-.27.32-1.21.51-2.43.52-3.41,0-.32.02-.49.05-.5.05-.02,0,0,0,0h-.01ZM45.43,37.07s0,1.11-.03,1.41c-.09.71-.24,1.42-.45,2.11-.05.18-.1.33-.11.34-.02.02-.68-.62-.9-.88-.38-.44-.67-.87-.89-1.3-.11-.22-.29-.64-.27-.66.08-.05,2.63-1.04,2.65-1.02ZM42.26,38.31h.01s.04.09.07.17c.15.42.5,1.04.8,1.44.33.44.76.9,1.12,1.21.12.1.22.19.24.2.03.03.04.02-.75.32-.91.35-1.91.7-3.06,1.07-.27.09-.55.18-.82.27-.04,0-.03,0,.1-.21.57-.89,1.43-2.62,1.91-3.86.08-.21.16-.43.18-.47.02-.07.04-.09.11-.13.03,0,.07-.02.08-.02h0ZM41.29,38.71s-.23.53-.47,1c-.47.92-.98,1.82-1.67,2.91-.12.19-.23.36-.24.38-.02.03-.03.02-.11-.13-.16-.32-.3-.74-.37-1.12-.07-.38-.06-1.04.02-1.44.04-.2.11-.32.2-.37.62-.31,2.63-1.25,2.64-1.24h0ZM49.65,39.05v.2c0,1.08-.12,2.56-.29,3.64-.03.19-.05.34-.06.35,0,0-.14-.04-.3-.09-.77-.25-1.52-.56-2.23-.95-.47-.26-1.15-.68-1.13-.7,0,0,.21-.11.45-.24.95-.49,1.86-1.03,2.65-1.55.3-.2.74-.52.84-.61l.08-.06h-.01ZM37.64,40.49v.21c-.02.17-.04.34-.05.52-.04.71.08,1.23.43,1.95.1.2.17.36.17.37-.03.03-3.24.97-4.25,1.24-.3.08-.56.16-.58.16-.03,0-.04,0-.02-.08.11-.71.65-1.64,1.41-2.43.5-.52.91-.83,1.59-1.22.49-.28,1.25-.7,1.31-.72h-.01ZM45.19,41.84s.12.06.26.14c1.04.6,2.48,1.16,3.71,1.44l.11.02-.16.09c-.64.36-2.76,1.24-4.93,2.05-.31.12-.62.23-.68.26-.06.02-.11.04-.11.03s.09-.17.2-.38c.61-1.13,1.22-2.51,1.53-3.47.04-.09.06-.17.07-.18h0ZM44.42,42.09s-.03.11-.08.22c-.42,1.02-.97,2.14-1.68,3.39-.18.32-.33.58-.33.58,0,0-.15-.09-.32-.19-1.03-.63-1.94-1.4-2.53-2.16l-.09-.11.44-.12c1.58-.43,2.92-.9,4.25-1.47.19-.08.34-.14.35-.14h-.01ZM49.21,43.76h0c0,.11-.24,1.11-.45,1.83-.17.61-.31,1.08-.58,1.92-.12.37-.22.67-.22.67h-.06c-1.44-.26-2.73-.62-3.94-1.11-.34-.14-.82-.35-.85-.38,0,0,.28-.15.65-.3,2.2-.96,4.49-2.06,5.27-2.53.09-.06.16-.09.18-.09h0ZM38.16,44.14s-.61.9-1.47,2.1c-.3.42-.65.92-.78,1.1-.15.21-.3.43-.44.65l-.2.31-.22-.18c-.26-.21-.7-.67-.9-.92-.42-.52-.7-1.07-.81-1.56-.05-.23-.05-.35,0-.36.86-.21,1.72-.41,2.58-.61.58-.13,1.16-.27,1.73-.41.28-.07.51-.12.51-.12ZM38.78,44.38l.15.17c.7.78,1.41,1.36,2.27,1.86.15.09.27.17.26.17-.03.02-2.99,1.07-4.36,1.55-.47.17-.94.33-1.41.49,0,0-.05-.03-.1-.06l-.09-.06.14-.2c.45-.66,1.03-1.38,2.27-2.88l.86-1.03h.01ZM42.64,47.14s.22.07.48.17c.63.24,1.13.39,1.8.56.82.21,2.01.41,2.72.47.11,0,.16.02.15.03-.03.02-.75.26-1.27.42-.83.26-3.38,1.01-5.45,1.61-.24.07-.49.14-.73.21-.05,0-.21-.03-.21-.05,0,0,.12-.16.26-.32.7-.83,1.39-1.76,1.97-2.64.16-.24.3-.44.3-.45h-.02ZM41.79,47.17s-.34.56-.94,1.51c-.26.4-.54.86-.64,1.02s-.24.4-.32.53l-.14.25-.07-.02c-.17-.05-1.4-.48-1.72-.61-.38-.15-.76-.33-1.13-.52-.39-.21-.87-.52-.83-.53,0,0,.67-.18,1.47-.4,2.12-.58,3.3-.91,4.07-1.15.14-.04.26-.08.27-.07h-.02ZM47.82,48.58h0s-.77,2.23-1.05,2.92c-.06.16-.09.19-.12.19-.08,0-1.22-.16-1.91-.27-1.21-.18-3.23-.54-3.74-.65l-.12-.02.72-.16c1.55-.35,2.3-.54,3.05-.77.98-.3,1.93-.67,2.85-1.1.15-.07.28-.12.31-.13h0Z"/>
    <path class="cls-1" d="M44.22,19.94c-.11-.01-1.83.61-2.94,1.06-1.5.61-2.66,1.19-3.38,1.7-.27.19-.6.52-.65.65-.02.05-.03.11-.03.16l.65.61,1.54.49,3.68.66,4.2.72.04-.36h-.04l-.55-.09-.11-.2c-.57-1.01-1.2-2.26-1.57-3.1-.29-.65-.56-1.41-.71-1.95-.08-.33-.09-.35-.15-.35,0,0,.02,0,.02,0ZM44.15,20.19h0s.02.14.04.3c.08.68.23,1.33.47,2.04.18.53.18.5-.03.44-.49-.14-2.71-.52-4.31-.74-.26-.03-.47-.07-.47-.07-.02-.02,1.16-.63,1.68-.88.66-.3,2.48-1.07,2.62-1.09ZM39.48,22.36l.19.06c1.03.35,3.61.84,5.03.96.16.01.3.03.3.03,0,0-.13.08-.3.16-.69.34-1.44.77-1.97,1.09-.15.1-.3.17-.31.17s-.12-.02-.23-.03l-.19-.03-.48-.47c-.59-.57-1.18-1.14-1.78-1.71l-.25-.23h-.01ZM39.28,22.51l.68.85c.37.47.75.93.83,1.03s.15.18.15.19c-.02.01-.99-.17-1.5-.29-.53-.12-.75-.18-1.07-.28l-.27-.09v-.07c0-.32.42-.81,1.11-1.3l.06-.04h.01ZM45.09,23.67s.04.04.1.17c.16.36.68,1.34.8,1.53.04.06.11.07-.58-.04-1.64-.27-2.17-.35-2.17-.36,0,0,.05-.04.11-.07.51-.28,1.02-.64,1.48-1.02.11-.09.21-.18.23-.19,0,0,.01-.01.02,0v-.02h.01Z"/>
    <path class="cls-4" d="M37.29,23.28s-.11.17,0,.42c.06.15.25.34.46.54,0,0,2.16,2.1,2.42,2.4,1.19,1.38,1.71,2.73,1.76,4.6.03,1.2-.2,2.26-.77,3.48-1.01,2.2-3.13,4.63-6.41,7.32l.48-.16c.31-.23.73-.48,1.72-1.02,2.28-1.25,4.85-2.4,8-3.58,4.53-1.7,11.99-3.7,16.23-4.35l.44-.07-.07-.11c-.39-.6-.65-.97-.97-1.37-.93-1.15-2.06-2.09-3.44-2.86-1.9-1.06-4.35-1.89-7.46-2.5-.59-.12-1.87-.34-2.92-.5-1.75-.27-3.49-.55-5.23-.85-.57-.1-1.41-.24-1.98-.36-.29-.06-.85-.19-1.28-.34-.35-.14-.85-.27-.96-.68h-.02,0ZM38.54,24.49s.08.02.18.06c.23.08.47.15.7.21.21.06.43.11.64.17.29.07.53.14.54.14.03.03.52,1.6.69,2.2.06.23.11.42.11.42,0,0-.06-.08-.12-.19-.57-1-1.46-2.01-2.5-2.82-.14-.1-.24-.18-.24-.19h0ZM40.92,25.15s.13.01.26.04c.82.18,2.3.46,3.24.62.16.02.29.05.29.06s-.06.04-.13.08c-.16.08-.8.46-1.02.61-.54.36-1.02.75-1.37,1.09-.14.14-.26.26-.26.26,0,0-.03-.08-.05-.18-.17-.67-.54-1.67-.87-2.37-.05-.11-.1-.21-.1-.22h.01ZM45.12,25.95s.08.17.17.54c.18.72.26,1.47.23,2.22,0,.2-.02.39-.03.42v.05l-.27-.08c-.52-.16-1.36-.41-2.08-.61-.41-.11-.75-.21-.75-.22,0-.03.6-.63.86-.86.49-.43,1.82-1.46,1.86-1.44v-.02h.01ZM45.45,25.99s2.01.33,2.91.5c.67.13,1.65.33,1.71.36.03,0-.07.07-.4.21-1.28.58-2.23,1.09-3.17,1.72-.25.16-.46.3-.46.3,0,0,0-.14,0-.31,0-.92-.18-1.85-.52-2.63-.03-.08-.06-.15-.06-.15h0ZM50.6,27.01s-.05.41-.11.64c-.17.72-.64,1.79-1.22,2.8-.1.18-.19.32-.2.33,0,0-.14-.07-.29-.15-.56-.33-1.2-.64-1.9-.93-.19-.08-.36-.15-.37-.16-.03-.03,1.53-1.06,2.35-1.55.65-.4,1.72-.99,1.74-.97h0ZM50.97,27.07s.92.24,1.39.38c1.14.34,2.45.82,3.3,1.21l.35.16-.25.06c-2.08.48-3.87,1.03-5.58,1.73-.14.06-.27.11-.28.11s.04-.11.1-.25c.52-1.1.85-2.25.93-3.23,0-.09.02-.16.03-.16h.01ZM42.19,29.09s.69.15,1.05.25c.55.15,1.72.55,1.72.58,0,0-.13.12-.29.25-.63.53-1.24,1.08-1.98,1.79-.22.21-.4.38-.41.38s-.01-.03-.01-.07c.11-.81.09-1.86-.07-2.92-.01-.14-.03-.25-.02-.26,0,0,.01,0,.01,0ZM56.34,29.1s-.31.51-.51.8c-.29.42-.72.97-1.68,2.18-.42.53-.85,1.07-1.27,1.6-.19.24-.35.45-.36.45,0,0-.07-.09-.14-.19-.54-.81-1.19-1.53-1.96-2.17-.12-.1-.24-.2-.36-.29-.05-.04-.1-.08-.1-.08,0-.01.82-.37,1.45-.62,1.09-.45,2.59-.98,3.71-1.32.59-.18,1.21-.36,1.22-.35h0ZM56.72,29.2s.14.05.28.14c1.18.67,2.33,1.54,3.24,2.43.26.25.89.91.88.92,0,0-.22.02-.48.04-2.04.15-4.65.59-7.16,1.19-.17.04-.32.07-.33.07s.18-.19.42-.42c1.47-1.42,2.15-2.32,2.94-3.91.11-.24.21-.44.22-.45t0,0h0ZM45.93,30.3c.07.01.7.31,1.17.55.44.22,1.09.57,1.12.6,0,0-.23.13-.51.27-.85.42-1.69.89-2.5,1.38-.23.14-.43.26-.43.26-.02,0-.01-.02.12-.26.44-.79.78-1.74.98-2.67.02-.07.04-.12.05-.12h0ZM45.3,30.42s-.15.61-.25.93c-.2.61-.53,1.38-.86,1.97-.08.14-.19.33-.26.45l-.12.19-.27-.26c-.31-.3-.57-.49-.9-.66-.13-.07-.23-.13-.23-.14,0-.04.83-.79,1.46-1.33.45-.39,1.41-1.16,1.43-1.15ZM49.15,32l.24.15c.54.35,1.18.82,1.67,1.23.28.23.81.71.92.82l.06.06-.39.11c-2.22.61-3.93,1.16-5.93,1.9-.22.08-.41.15-.43.15-.03,0-.05.02.45-.44,1.28-1.18,2.41-2.47,3.25-3.74l.17-.26v.02h0ZM48.14,32.25s-.65.94-1.05,1.47c-.47.63-1.32,1.69-1.9,2.37-.24.29-.45.52-.46.53-.01,0-.02-.07-.02-.18,0-.59-.15-1.21-.41-1.74-.11-.22-.13-.28-.11-.3.09-.08,1.5-.89,2.39-1.37.6-.32,1.54-.79,1.55-.78h.01ZM42.01,33.75s.13.06.25.13c.29.16.57.35.83.56,0,0-.12.11-.28.23-.46.33-1.16.86-1.56,1.18-.43.34-.44.35-.39.28.32-.49.48-.77.65-1.12.16-.33.29-.67.41-1.01.04-.14.09-.25.1-.25,0,0-.01,0-.01,0ZM43.65,35.03s.05.04.18.23c.28.41.49.96.54,1.41v.1l-.65.26c-1.19.46-2.28.92-3.02,1.25-.27.13-.54.26-.81.39-.24.12-.43.21-.43.21,0,0,.15-.12.33-.25,1.45-1.05,2.7-2.2,3.64-3.36.1-.12.19-.23.2-.24,0,0,.02,0,.02,0ZM42.9,35.22s-.53.64-.91,1.03c-.93.95-1.86,1.7-3.01,2.43-.15.09-.28.17-.29.18-.03.02,0-.03.51-.58.3-.32.58-.65.84-.99.18-.24.22-.27.48-.46.71-.51,2.35-1.63,2.37-1.61,0,0,.01,0,.01,0Z"/>
  </g>
  <text class="cls-5" transform="translate(26 69.08)"><tspan x="0" y="0">SQL Server</tspan></text>
</svg>