<?xml version="1.0" encoding="UTF-8"?>
<svg id="Camada_1" data-name="Camada 1" xmlns="http://www.w3.org/2000/svg" xmlns:xlink="http://www.w3.org/1999/xlink" viewBox="0 0 94 94">
  <defs>
    <style>
      .cls-1 {
        fill: #e5e5e5;
        filter: url(#drop-shadow-2);
        font-family: JetBrainsMono-Bold, 'JetBrains Mono';
        font-size: 7px;
        font-weight: 700;
      }

      .cls-2 {
        fill: #b8c4c2;
      }

      .cls-2, .cls-3, .cls-4, .cls-5, .cls-6 {
        stroke-width: 0px;
      }

      .cls-3 {
        fill: #12924f;
      }

      .cls-4 {
        fill: #023430;
      }

      .cls-5 {
        fill: #10aa50;
      }

      .cls-6 {
        fill: #212529;
        filter: url(#drop-shadow-1);
      }
    </style>
    <filter id="drop-shadow-1" filterUnits="userSpaceOnUse">
      <feOffset dx="0" dy="0"/>
      <feGaussianBlur result="blur" stdDeviation="5"/>
      <feFlood flood-color="#212529" flood-opacity=".75"/>
      <feComposite in2="blur" operator="in"/>
      <feComposite in="SourceGraphic"/>
    </filter>
    <filter id="drop-shadow-2" filterUnits="userSpaceOnUse">
      <feOffset dx="0" dy="0"/>
      <feGaussianBlur result="blur-2" stdDeviation="5"/>
      <feFlood flood-color="#212529" flood-opacity=".75"/>
      <feComposite in2="blur-2" operator="in"/>
      <feComposite in="SourceGraphic"/>
    </filter>
  </defs>
  <rect class="cls-6" x="15" y="15" width="64" height="64" rx="5" ry="5"/>
  <g>
    <path class="cls-4" d="M38.5,20h17c4.1,0,7.5,3.4,7.5,7.5v17c0,4.1-3.4,7.5-7.5,7.5h-17c-4.1,0-7.5-3.4-7.5-7.5v-17c0-4.1,3.4-7.5,7.5-7.5Z"/>
    <path class="cls-5" d="M52.4,33.5c-1.3-5.8-4.1-7.4-4.8-8.4-.3-.5-.5-1-.8-1.5,0,.4,0,.7-.5,1.1-.9.8-4.6,3.8-4.9,10.4-.3,6.2,4.5,10,5.2,10.3.5.2,1.1,0,1.4-.2,2.2-1.5,5.4-5.7,4.4-11.7"/>
    <path class="cls-2" d="M47.1,42.2c-.1,1.5-.2,2.4-.5,3.3,0,0,.2,1.5.3,3h.5c.1-1.1.3-2.2.5-3.2-.6-.3-.8-1.7-.8-3.1h0Z"/>
    <path class="cls-3" d="M48,45.3c-.7-.3-.8-1.7-.9-3,.2-2.2.2-4.4.1-6.6,0-1.1,0-10.6-.3-12,.2.5.4.9.7,1.4.7,1.1,3.5,2.6,4.8,8.4,1,5.9-2.1,10.2-4.4,11.8h0Z"/>
  </g>
  <text class="cls-1" transform="translate(32.3 69.08)"><tspan x="0" y="0">MongoDB</tspan></text>
</svg>