<?xml version="1.0" encoding="UTF-8"?>
<svg id="Camada_1" data-name="Camada 1" xmlns="http://www.w3.org/2000/svg" xmlns:xlink="http://www.w3.org/1999/xlink" viewBox="0 0 94 94">
  <defs>
    <style>
      .cls-1 {
        fill: #e5e5e5;
        filter: url(#drop-shadow-2);
        font-family: JetBrainsMono-Bold, 'JetBrains Mono';
        font-size: 7px;
        font-weight: 700;
      }

      .cls-2 {
        fill: #00758f;
      }

      .cls-2, .cls-3 {
        fill-rule: evenodd;
      }

      .cls-2, .cls-3, .cls-4 {
        stroke-width: 0px;
      }

      .cls-3 {
        fill: #5d87a1;
      }

      .cls-4 {
        fill: #212529;
        filter: url(#drop-shadow-1);
      }
    </style>
    <filter id="drop-shadow-1" filterUnits="userSpaceOnUse">
      <feOffset dx="0" dy="0"/>
      <feGaussianBlur result="blur" stdDeviation="5"/>
      <feFlood flood-color="#212529" flood-opacity=".75"/>
      <feComposite in2="blur" operator="in"/>
      <feComposite in="SourceGraphic"/>
    </filter>
    <filter id="drop-shadow-2" filterUnits="userSpaceOnUse">
      <feOffset dx="0" dy="0"/>
      <feGaussianBlur result="blur-2" stdDeviation="5"/>
      <feFlood flood-color="#212529" flood-opacity=".75"/>
      <feComposite in2="blur-2" operator="in"/>
      <feComposite in="SourceGraphic"/>
    </filter>
  </defs>
  <rect class="cls-4" x="15" y="15" width="64" height="64" rx="5" ry="5"/>
  <g>
    <path class="cls-3" d="M39.74,27.59c-.26,0-.53.03-.78.1v.03h.04c.18.28.39.54.61.78.15.31.29.61.44.92l.04-.04c.29-.23.44-.59.4-.96-.08-.13-.16-.26-.23-.4-.12-.19-.36-.29-.52-.44"/>
    <path class="cls-2" d="M58.74,44.28c-1.26-.09-2.53.09-3.71.54-.29.12-.74.12-.78.48.15.15.17.4.31.61.26.44.6.84.99,1.17.4.31.8.61,1.22.88.74.46,1.59.73,2.31,1.19.42.27.84.61,1.26.9.21.15.34.4.61.5v-.06c-.08-.21-.18-.42-.29-.61-.19-.19-.38-.36-.58-.55-.56-.74-1.23-1.39-1.99-1.93-.61-.42-1.95-1-2.2-1.7l-.04-.04c.45-.06.89-.17,1.32-.31.65-.17,1.24-.13,1.91-.3.31-.08.86-.27.86-.27v-.3c-.34-.34-.59-.79-.95-1.12-.98-.85-2.02-1.63-3.12-2.33-.59-.38-1.34-.62-1.97-.95-.23-.11-.6-.17-.74-.36-.31-.46-.57-.94-.78-1.46-.56-1.08-1.08-2.18-1.55-3.29-.28-.74-.6-1.46-.97-2.16-1.75-2.98-4.28-5.43-7.32-7.08-.77-.37-1.58-.63-2.42-.78-.47-.02-.95-.06-1.42-.07-.31-.2-.6-.42-.87-.66-1.08-.69-3.86-2.16-4.66-.21-.51,1.23.76,2.44,1.19,3.07.37.44.69.92.97,1.42.13.32.17.66.3,1,.28.86.61,1.71.99,2.54.2.41.44.8.7,1.17.15.21.42.3.47.65-.21.45-.36.93-.44,1.42-.67,2.11-.47,4.4.55,6.36.3.47,1.02,1.51,1.99,1.12.85-.34.66-1.42.91-2.36.06-.23.02-.38.13-.53v.18s.48,1.06.72,1.6c.65.99,1.46,1.86,2.4,2.59.37.32.67.72.88,1.17v.34h.43c-.02-.31-.17-.6-.43-.79-.35-.36-.67-.75-.96-1.16-.78-1.11-1.47-2.29-2.06-3.52-.3-.6-.55-1.26-.79-1.86-.11-.23-.11-.58-.29-.7-.34.4-.64.84-.88,1.31-.3.95-.47,1.93-.52,2.92-.07.02-.04,0-.07.04-.59-.15-.79-.79-1.01-1.33-.57-1.67-.63-3.47-.17-5.16.13-.41.68-1.68.46-2.07-.11-.37-.48-.58-.68-.87-.26-.39-.48-.81-.66-1.24-.44-1.08-.66-2.28-1.14-3.36-.26-.52-.57-1.02-.92-1.49-.39-.47-.73-.97-1.01-1.51-.09-.21-.22-.56-.07-.79.02-.13.13-.24.26-.25.24-.21.92.06,1.16.17.64.25,1.25.58,1.82.97.26.19.87.69.87.69h.18c.61.13,1.3.04,1.88.21.97.32,1.9.77,2.76,1.32,2.53,1.62,4.59,3.87,5.97,6.55.23.44.33.84.54,1.3.4.94.9,1.9,1.3,2.81.35.9.81,1.76,1.36,2.56.29.4,1.44.61,1.95.82.45.16.89.33,1.32.53.65.4,1.3.86,1.91,1.3.31.23,1.26.71,1.32,1.09"/>
  </g>
  <text class="cls-1" transform="translate(36.5 69.08)"><tspan x="0" y="0">MySQL</tspan></text>
</svg>