<?xml version="1.0" encoding="utf-8"?>
<!-- Generator: Adobe Illustrator 28.2.0, SVG Export Plug-In . SVG Version: 6.00 Build 0)  -->
<svg version="1.1" id="icon" xmlns="http://www.w3.org/2000/svg" xmlns:xlink="http://www.w3.org/1999/xlink" x="0px" y="0px"
	 viewBox="0 0 94 94" style="enable-background:new 0 0 94 94;" xml:space="preserve">
<style type="text/css">
	.st0{fill:#212529;}
	.st1{fill:#83CD29;}
	.st2{fill:#E5E5E5;}
	.st3{font-family:'JetBrainsMono-Bold';}
	.st4{font-size:7px;}
</style>
<path class="st0" d="M20,15h54c2.8,0,5,2.2,5,5v54c0,2.8-2.2,5-5,5H20c-2.8,0-5-2.2-5-5V20C15,17.2,17.2,15,20,15z"/>
<path class="st1" d="M60,27.1l-11.7-6.8c-0.7-0.4-1.7-0.4-2.4,0l-11.8,6.8c-0.8,0.4-1.3,1.3-1.3,2.1v13.5c0,0.9,0.6,1.7,1.3,2.1
	l3.1,1.8c1.5,0.7,2,0.7,2.7,0.7c2.2,0,3.5-1.3,3.5-3.7V30.4c0-0.2-0.1-0.5-0.3-0.5h-1.5c-0.2,0-0.6,0.3-0.6,0.5v13.4
	c0,1-0.9,2.1-2.7,1.2l-3.2-1.9C35,43,35,42.9,35,42.7V29.2c0-0.1,0.1-0.3,0.3-0.3L47,22.1c0.1-0.1,0.3-0.1,0.4,0L59,28.9
	c0.1,0.1,0.1,0.2,0.1,0.3v13.5c0,0.1,0.1,0.3-0.1,0.3l-11.7,6.8c-0.1,0.1-0.2,0.1-0.3,0L44,48c-0.1-0.1-0.2-0.1-0.3,0
	c-0.8,0.5-1,0.5-1.8,0.8c-0.2,0.1-0.5,0.2,0.1,0.5l3.9,2.3c0.4,0.2,0.8,0.3,1.2,0.3c0.4,0,0.9-0.1,1.2-0.3L60,44.9
	c0.8-0.4,1.1-1.3,1.1-2.1V29.2C61.2,28.3,60.8,27.5,60,27.1L60,27.1z M50.8,40.6c-3.1,0-3.8-0.9-4-2.4c0-0.2-0.2-0.4-0.3-0.4h-1.5
	c-0.2,0-0.3,0.2-0.3,0.4c0,2,1.1,4.4,6.2,4.4c3.7,0,5.8-1.4,5.8-4s-1.7-3.2-5.3-3.7c-3.6-0.5-4-0.7-4-1.6c0-0.7,0.3-1.6,3-1.6
	c2.4,0,3.3,0.5,3.7,2.1c0,0.2,0.2,0.3,0.3,0.3h1.5c0.1,0,0.2,0,0.3-0.1c0.1-0.1,0.1-0.2,0.1-0.3c-0.2-2.8-2.1-4.1-5.9-4.1
	C47,29.6,45,31,45,33.4c0,2.6,2,3.3,5.2,3.6c3.8,0.4,4.1,0.9,4.1,1.7C54.3,40,53.3,40.6,50.8,40.6L50.8,40.6z"/>
<text transform="matrix(1 0 0 1 38.6 68.87)" class="st2 st3 st4">Node</text>
</svg>
