<?xml version="1.0" encoding="UTF-8"?>
<svg id="icon" xmlns="http://www.w3.org/2000/svg" xmlns:xlink="http://www.w3.org/1999/xlink" viewBox="0 0 94 94">
  <defs>
    <style>
      .cls-1 {
        fill: #e5e5e5;
        filter: url(#drop-shadow-2);
        font-family: JetBrainsMono-Bold, 'JetBrains Mono';
        font-size: 7px;
        font-weight: 700;
        letter-spacing: 0em;
      }

      .cls-2 {
        fill: #ff6c37;
      }

      .cls-2, .cls-3, .cls-4, .cls-5 {
        stroke-width: 0px;
      }

      .cls-3 {
        fill: none;
      }

      .cls-4 {
        fill: #fff;
      }

      .cls-6 {
        clip-path: url(#clippath);
      }

      .cls-5 {
        fill: #212529;
        filter: url(#drop-shadow-1);
      }
    </style>
    <filter id="drop-shadow-1" filterUnits="userSpaceOnUse">
      <feOffset dx="0" dy="0"/>
      <feGaussianBlur result="blur" stdDeviation="5"/>
      <feFlood flood-color="#212529" flood-opacity=".75"/>
      <feComposite in2="blur" operator="in"/>
      <feComposite in="SourceGraphic"/>
    </filter>
    <clipPath id="clippath">
      <rect class="cls-3" x="31" y="20" width="32" height="32"/>
    </clipPath>
    <filter id="drop-shadow-2" filterUnits="userSpaceOnUse">
      <feOffset dx="0" dy="0"/>
      <feGaussianBlur result="blur-2" stdDeviation="5"/>
      <feFlood flood-color="#212529" flood-opacity=".75"/>
      <feComposite in2="blur-2" operator="in"/>
      <feComposite in="SourceGraphic"/>
    </filter>
  </defs>
  <rect class="cls-5" x="15" y="15" width="64" height="64" rx="5" ry="5"/>
  <g class="cls-6">
    <g>
      <path class="cls-2" d="M62.87,38.03c1.12-8.77-5.07-16.78-13.82-17.9-8.75-1.12-16.8,5.07-17.92,13.82-1.12,8.75,5.07,16.78,13.82,17.92,8.77,1.12,16.78-5.07,17.92-13.84h0Z"/>
      <path class="cls-4" d="M52.78,30.27l-6.75,6.75-1.9-1.9c6.64-6.64,7.29-6.06,8.65-4.85Z"/>
      <path class="cls-2" d="M46.02,37.18s-.08-.02-.11-.05l-1.92-1.9c-.06-.06-.06-.16,0-.22,0,0,0,0,0,0,6.75-6.75,7.45-6.11,8.88-4.83.03.03.05.07.05.11,0,.05-.02.08-.05.11l-6.75,6.74s-.06.05-.1.05ZM44.34,35.12l1.68,1.68,6.51-6.51c-1.18-1.06-1.98-1.38-8.19,4.83h0Z"/>
      <path class="cls-4" d="M47.96,38.96l-1.84-1.84,6.75-6.75c1.81,1.82-.9,4.78-4.91,8.59Z"/>
      <path class="cls-2" d="M47.96,39.12s-.08-.02-.11-.05l-1.84-1.84s-.03-.06-.03-.11.02-.08.05-.11l6.75-6.75c.06-.06.16-.06.22,0,0,0,0,0,0,0,.42.38.64.93.62,1.49-.03,1.77-2.05,4.03-5.53,7.33-.04.03-.08.04-.13.05h0ZM46.34,37.12c1.02,1.04,1.46,1.46,1.62,1.61,2.69-2.56,5.29-5.18,5.31-6.99,0-.42-.14-.83-.42-1.15l-6.51,6.53h0Z"/>
      <path class="cls-4" d="M44.15,35.17l1.36,1.36s.03.06,0,.1t-.03.02l-2.81.61c-.14.02-.28-.08-.3-.22-.01-.08.01-.15.06-.21l1.63-1.63s.08-.05.1-.02Z"/>
      <path class="cls-2" d="M42.62,37.41c-.23,0-.42-.19-.42-.42,0,0,0,0,0-.01,0-.11.05-.22.13-.3l1.63-1.63c.09-.08.23-.08.32,0l1.36,1.36c.1.08.1.22,0,.32-.03.03-.07.05-.11.06l-2.81.61s-.06.02-.1.02ZM44.1,35.34l-1.57,1.57s-.05.08-.02.13c.02.05.06.06.11.05l2.64-.58s-1.17-1.17-1.17-1.17Z"/>
      <path class="cls-4" d="M56.34,26.53c-1.03-.99-2.66-.96-3.65.07,0,0,0,0,0,0-.99,1.03-.96,2.66.07,3.65,0,0,0,0,.01.01.85.82,2.13.96,3.13.35l-1.82-1.82,2.27-2.27Z"/>
      <path class="cls-2" d="M54.55,31.15c-1.52,0-2.75-1.23-2.75-2.75s1.23-2.75,2.75-2.75c.71,0,1.39.27,1.91.77.03.03.05.07.05.11,0,.05-.02.08-.05.11l-2.16,2.16,1.7,1.69c.06.06.06.16,0,.22,0,0,0,0,0,0l-.03.03c-.42.26-.91.4-1.41.4h0ZM54.55,25.99c-1.33,0-2.41,1.07-2.42,2.4,0,.01,0,.02,0,.03,0,1.33,1.07,2.41,2.4,2.42.01,0,.02,0,.03,0,.37,0,.74-.09,1.07-.26l-1.68-1.66s-.05-.07-.05-.11c0-.05.02-.08.05-.11l2.14-2.14c-.43-.37-.98-.57-1.55-.56h0Z"/>
      <path class="cls-4" d="M56.39,26.58l-.03-.03-2.29,2.25,1.81,1.81c.17-.11.35-.24.49-.38,1.01-.99,1.03-2.61.04-3.63,0,0-.01-.01-.02-.02Z"/>
      <path class="cls-2" d="M55.9,30.78s-.08-.02-.11-.05l-1.82-1.82s-.05-.07-.05-.11c0-.05.02-.08.05-.11l2.27-2.27c.06-.06.16-.06.22,0,0,0,0,0,0,0l.05.03c1.07,1.07,1.08,2.81.02,3.89-.16.16-.33.3-.53.42-.05.02-.08.03-.1.03h0ZM54.3,28.8l1.62,1.62c.13-.08.26-.19.35-.29.91-.91.96-2.4.08-3.36,0,0-2.05,2.03-2.05,2.03Z"/>
      <path class="cls-4" d="M53.05,30.56c-.38-.38-1.01-.38-1.39,0l-6.03,6.03,1.01,1.01,6.38-5.6c.42-.35.45-.98.1-1.39-.03-.02-.05-.03-.06-.05h0Z"/>
      <path class="cls-2" d="M46.62,37.76s-.08-.02-.11-.05l-1.01-1.01c-.06-.06-.06-.16,0-.22,0,0,0,0,0,0l6.03-6.03c.44-.45,1.17-.45,1.61,0,0,0,0,0,0,0,.45.44.45,1.17,0,1.61,0,0,0,0,0,0l-.05.05-6.38,5.6s-.05.05-.1.05ZM45.85,36.59l.78.78,6.27-5.5c.35-.29.38-.82.1-1.17s-.82-.38-1.17-.1c-.02.02-.04.04-.06.05,0,0-5.92,5.93-5.92,5.93Z"/>
      <path class="cls-4" d="M41,43.46c-.06.03-.1.1-.08.16l.27,1.15c.06.16-.02.33-.18.39,0,0-.02,0-.02,0-.13.04-.27,0-.35-.1l-1.76-1.74,5.74-5.74,1.98.03,1.34,1.34c-.32.27-2.26,2.14-6.94,4.5Z"/>
      <path class="cls-2" d="M40.87,45.33c-.13,0-.25-.05-.34-.14l-1.74-1.74s-.05-.07-.05-.11c0-.05.02-.08.05-.11l5.74-5.74s.07-.05.11-.05l1.98.03s.08.02.11.05l1.34,1.34s.05.08.05.13-.02.08-.06.11l-.11.1c-1.7,1.49-4,2.98-6.86,4.4l.27,1.14c.05.21-.05.43-.24.54-.08.04-.17.06-.26.06ZM39.11,43.33l1.65,1.63c.05.08.14.11.22.06.08-.05.11-.14.06-.22l-.27-1.15c-.03-.14.03-.28.16-.34,2.83-1.42,5.12-2.9,6.8-4.35l-1.18-1.18-1.84-.03-5.6,5.58h0Z"/>
      <path class="cls-4" d="M37.51,44.7l1.38-1.38,2.05,2.05-3.26-.22c-.14-.02-.24-.14-.22-.28,0,0,0,0,0,0,0-.06.02-.13.06-.16Z"/>
      <path class="cls-2" d="M40.94,45.52l-3.28-.22c-.24-.02-.4-.22-.38-.46.02-.1.05-.19.13-.26l1.38-1.38c.06-.06.16-.06.22,0,0,0,0,0,0,0l2.05,2.05s.06.11.03.18c-.03.06-.08.1-.14.1ZM38.89,43.55l-1.26,1.26s-.05.11,0,.14c.02.02.03.03.06.03l2.83.19s-1.63-1.63-1.63-1.63ZM44.06,38.32c-.09,0-.16-.07-.16-.16,0-.05.02-.08.05-.11l1.55-1.55c.06-.06.16-.06.22,0,0,0,0,0,0,0l1.01,1.01s.06.1.05.16c-.02.06-.07.1-.13.11l-2.56.54h-.03ZM45.61,36.83l-1.06,1.06,1.73-.37-.67-.69Z"/>
      <path class="cls-4" d="M46.6,37.62l-1.76.38c-.13.03-.26-.05-.29-.18-.02-.08,0-.17.06-.22l.98-.98s1.01.99,1.01.99Z"/>
      <path class="cls-2" d="M44.81,38.16c-.22,0-.4-.17-.4-.39,0,0,0,0,0,0,0-.11.04-.21.11-.29l.98-.98c.06-.06.16-.06.22,0,0,0,0,0,0,0l1.01,1.01s.06.1.05.16c-.02.06-.07.1-.13.11l-1.76.38h-.08ZM45.61,36.83l-.86.86s-.03.06-.02.1.05.05.1.05l1.47-.32s-.69-.69-.69-.69ZM56.41,28.11c-.03-.1-.14-.14-.24-.11s-.14.14-.11.24c0,.01.02.03.02.05.09.2.07.43-.06.61-.06.08-.05.19.02.26.08.06.19.05.25-.03,0,0,0,0,0,0,.24-.3.29-.69.13-1.01Z"/>
    </g>
  </g>
  <text class="cls-1" transform="translate(32.79 68.87) scale(.96 1)"><tspan x="0" y="0">Postman</tspan></text>
</svg>