<?xml version="1.0" encoding="UTF-8"?>
<svg id="icon" xmlns="http://www.w3.org/2000/svg" xmlns:xlink="http://www.w3.org/1999/xlink" viewBox="0 0 94 94">
  <defs>
    <style>
      .cls-1, .cls-2, .cls-3, .cls-4, .cls-5 {
        stroke-width: 0px;
      }

      .cls-6 {
        fill: #e5e5e5;
        filter: url(#drop-shadow-2);
        font-family: JetBrainsMono-Bold, 'JetBrains Mono';
        font-size: 7px;
        font-weight: 700;
        letter-spacing: 0em;
      }

      .cls-2 {
        fill: none;
      }

      .cls-3 {
        fill: #fff;
      }

      .cls-7 {
        clip-path: url(#clippath);
      }

      .cls-4 {
        fill: #212529;
        filter: url(#drop-shadow-1);
      }

      .cls-5 {
        fill: #336791;
      }
    </style>
    <filter id="drop-shadow-1" filterUnits="userSpaceOnUse">
      <feOffset dx="0" dy="0"/>
      <feGaussianBlur result="blur" stdDeviation="5"/>
      <feFlood flood-color="#212529" flood-opacity=".75"/>
      <feComposite in2="blur" operator="in"/>
      <feComposite in="SourceGraphic"/>
    </filter>
    <clipPath id="clippath">
      <rect class="cls-2" x="31" y="20" width="32" height="32"/>
    </clipPath>
    <filter id="drop-shadow-2" filterUnits="userSpaceOnUse">
      <feOffset dx="0" dy="0"/>
      <feGaussianBlur result="blur-2" stdDeviation="5"/>
      <feFlood flood-color="#212529" flood-opacity=".75"/>
      <feComposite in2="blur-2" operator="in"/>
      <feComposite in="SourceGraphic"/>
    </filter>
  </defs>
  <rect class="cls-4" x="15" y="15" width="64" height="64" rx="5" ry="5"/>
  <g class="cls-7">
    <g>
      <path class="cls-1" d="M62.4,39.16c-.19-.56-.67-.96-1.3-1.05-.3-.05-.64-.03-1.04.06-.53.12-1.06.19-1.6.21,1.44-2.42,2.6-5.18,3.27-7.78,1.09-4.2.51-6.12-.17-6.99-1.79-2.29-4.41-3.52-7.57-3.56-1.33-.01-2.66.17-3.94.55-.76-.13-1.53-.2-2.3-.21-1.52-.02-2.86.31-4.01.99-.92-.31-1.87-.55-2.83-.71-2.77-.45-5-.1-6.63,1.05-1.98,1.4-2.89,3.82-2.72,7.21.05,1.08.66,4.35,1.6,7.45.54,1.78,1.12,3.26,1.73,4.4.85,1.61,1.76,2.56,2.79,2.91.57.19,1.61.33,2.71-.59.14.17.32.33.57.49.31.2.69.36,1.08.45,1.38.34,2.66.26,3.76-.22,0,.19.01.38.02.54,0,.26.01.52.02.76.06,1.62.18,2.88.5,3.76.02.05.04.12.07.2.16.5.44,1.33,1.13,1.99.72.68,1.59.88,2.38.88.4,0,.78-.05,1.11-.12,1.19-.26,2.54-.64,3.52-2.04.92-1.32,1.38-3.3,1.46-6.42l.03-.25.02-.17.22.02h.06c1.21.06,2.69-.2,3.6-.62.72-.33,3.03-1.55,2.48-3.19h0Z"/>
      <path class="cls-5" d="M60.32,39.48c-3.6.74-3.85-.48-3.85-.48,3.81-5.65,5.4-12.82,4.02-14.57-3.74-4.79-10.23-2.52-10.34-2.46h-.03c-.79-.15-1.6-.24-2.4-.24-1.63-.03-2.87.43-3.81,1.14,0,0-11.57-4.77-11.03,5.99.11,2.29,3.28,17.32,7.06,12.78.87-1.05,1.78-2.07,2.71-3.06.67.45,1.48.66,2.29.58l.06-.06c-.02.21-.01.41.03.65-.97,1.09-.69,1.28-2.63,1.68-1.97.4-.81,1.13-.06,1.32.92.23,3.03.55,4.46-1.45l-.06.23c.38.31.65,1.99.6,3.51-.04,1.52-.08,2.57.22,3.39s.6,2.65,3.16,2.11c2.14-.46,3.24-1.64,3.4-3.62.11-1.41.36-1.2.37-2.46l.2-.6c.23-1.91.04-2.52,1.35-2.24l.32.03c.97.04,2.24-.16,2.98-.5,1.6-.74,2.55-1.99.97-1.66h0Z"/>
      <path class="cls-3" d="M44.58,29.88c-.33-.05-.62,0-.77.11-.06.04-.1.11-.12.19-.02.13.08.28.13.36.16.22.4.36.64.4.03,0,.07,0,.1,0,.39,0,.75-.31.78-.53.04-.28-.37-.47-.77-.53ZM55.35,29.89c-.03-.22-.43-.28-.8-.23-.38.05-.74.22-.71.44.03.17.34.47.71.47.03,0,.06,0,.09,0,.2-.03.38-.13.51-.28.13-.14.21-.29.19-.39h0Z"/>
      <path class="cls-3" d="M61.52,39.4c-.14-.42-.58-.55-1.31-.4-2.18.45-2.96.14-3.22-.05,1.7-2.58,3.09-5.71,3.85-8.62.36-1.38.55-2.66.57-3.71.02-1.15-.18-1.99-.58-2.51-1.62-2.08-4.01-3.19-6.9-3.22-1.98-.02-3.66.48-3.99.63-.73-.18-1.49-.28-2.24-.29-1.49-.02-2.78.33-3.84,1.06-1.01-.37-2.06-.65-3.12-.82-2.53-.41-4.54-.1-5.98.92-1.71,1.21-2.5,3.38-2.35,6.44.05,1.03.64,4.2,1.57,7.24,1.22,4,2.55,6.26,3.94,6.72.16.05.35.09.56.09.51,0,1.13-.23,1.78-1.01.79-.95,1.61-1.88,2.46-2.78.55.3,1.15.46,1.77.48v.05c-.12.15-.22.27-.31.39-.43.54-.52.66-1.89.94-.39.08-1.43.29-1.44,1.02-.02.79,1.23,1.13,1.37,1.17.49.12.97.18,1.42.18,1.1,0,2.08-.36,2.85-1.06-.02,2.83.1,5.63.44,6.48.28.7.96,2.4,3.11,2.4.32,0,.66-.04,1.04-.12,2.24-.48,3.22-1.47,3.6-3.66.2-1.17.55-3.96.71-5.46.34.11.79.16,1.26.16,1,0,2.15-.21,2.87-.55.81-.38,2.28-1.3,2.01-2.1ZM56.17,29.28c0,.44-.07.84-.13,1.26-.07.45-.14.92-.16,1.48-.02.55.05,1.12.12,1.67.13,1.12.27,2.27-.26,3.4-.09-.16-.17-.32-.24-.49-.07-.16-.21-.42-.41-.78-.78-1.39-2.59-4.65-1.66-5.98.28-.4.98-.8,2.74-.58ZM54.04,21.79c2.59.06,4.63,1.02,6.08,2.88,1.11,1.42-.11,7.88-3.65,13.45-.05-.06-.1-.13-.15-.19.92-1.51.74-3.01.58-4.33-.07-.54-.13-1.06-.11-1.54.02-.51.08-.95.15-1.38.08-.52.16-1.06.14-1.7.02-.08.02-.16.01-.24-.06-.61-.76-2.44-2.18-4.1-.78-.91-1.91-1.92-3.46-2.6.85-.18,1.73-.26,2.6-.24ZM39.57,41.31c-.72.86-1.21.69-1.37.64-1.06-.35-2.29-2.59-3.37-6.14-.94-3.07-1.49-6.15-1.53-7.02-.14-2.74.53-4.64,1.97-5.67,2.35-1.67,6.22-.67,7.77-.16l-.07.06c-2.55,2.57-2.49,6.97-2.48,7.24,0,.1,0,.25.02.45.04.74.13,2.12-.09,3.68-.2,1.45.24,2.87,1.22,3.89.1.11.21.21.32.3-.82.88-1.62,1.79-2.4,2.72ZM42.29,37.67c-.79-.83-1.15-1.97-.99-3.15.23-1.65.15-3.08.1-3.85,0-.09-.01-.18-.02-.28.37-.33,2.1-1.25,3.33-.97.56.13.9.51,1.05,1.17.74,3.41.1,4.83-.42,5.97-.11.24-.21.46-.29.69l-.07.18c-.17.45-.32.87-.42,1.26-.84,0-1.66-.36-2.28-1.01ZM42.42,42.26c-.21-.05-.41-.14-.6-.26.11-.05.3-.12.63-.19,1.62-.33,1.87-.57,2.41-1.26.12-.16.27-.34.46-.56.29-.33.43-.27.67-.17.2.08.39.33.47.6.04.13.08.37-.06.56-1.14,1.59-2.8,1.57-3.99,1.28ZM50.88,50.14c-1.98.42-2.68-.58-3.14-1.74-.3-.74-.44-4.1-.34-7.81,0-.05,0-.1-.02-.14-.01-.09-.03-.18-.06-.26-.15-.54-.53-.99-.98-1.18-.18-.07-.51-.21-.9-.11.08-.35.23-.74.39-1.16l.07-.18c.08-.2.17-.41.27-.63.54-1.19,1.27-2.83.47-6.52-.3-1.38-1.3-2.06-2.81-1.9-.91.09-1.74.46-2.15.67-.09.05-.17.09-.25.13.12-1.39.55-4,2.19-5.65,1.03-1.04,2.4-1.55,4.07-1.52,3.29.05,5.4,1.74,6.59,3.15,1.03,1.21,1.58,2.43,1.8,3.09-1.67-.17-2.8.16-3.38.98-1.25,1.79.68,5.26,1.61,6.92.17.31.32.57.36.68.3.73.69,1.22.98,1.58.09.11.17.22.24.31-.51.15-1.41.48-1.33,2.16-.07.84-.54,4.79-.78,6.19-.32,1.84-1,2.53-2.9,2.94ZM59.14,40.69c-.52.24-1.38.42-2.2.46-.91.04-1.37-.1-1.48-.19-.05-1.05.34-1.16.75-1.27.06-.02.13-.04.19-.06.04.03.08.06.12.09.73.48,2.03.53,3.86.15h.02c-.25.23-.67.54-1.27.82Z"/>
    </g>
  </g>
  <text class="cls-6" transform="translate(26.69 68.87) scale(.96 1)"><tspan x="0" y="0">PostgreSQL</tspan></text>
</svg>