<?xml version="1.0" encoding="UTF-8"?>
<svg id="icon" xmlns="http://www.w3.org/2000/svg" xmlns:xlink="http://www.w3.org/1999/xlink" viewBox="0 0 94 94">
  <defs>
    <style>
      .cls-1 {
        fill: #e5e5e5;
        filter: url(#drop-shadow-2);
        font-family: JetBrainsMono-Bold, 'JetBrains Mono';
        font-size: 7px;
        font-weight: 700;
      }

      .cls-2 {
        fill: #61dafb;
      }

      .cls-2, .cls-3 {
        stroke-width: 0px;
      }

      .cls-3 {
        fill: #212529;
        filter: url(#drop-shadow-1);
      }
    </style>
    <filter id="drop-shadow-1" filterUnits="userSpaceOnUse">
      <feOffset dx="0" dy="0"/>
      <feGaussianBlur result="blur" stdDeviation="5"/>
      <feFlood flood-color="#212529" flood-opacity=".75"/>
      <feComposite in2="blur" operator="in"/>
      <feComposite in="SourceGraphic"/>
    </filter>
    <filter id="drop-shadow-2" filterUnits="userSpaceOnUse">
      <feOffset dx="0" dy="0"/>
      <feGaussianBlur result="blur-2" stdDeviation="5"/>
      <feFlood flood-color="#212529" flood-opacity=".75"/>
      <feComposite in2="blur-2" operator="in"/>
      <feComposite in="SourceGraphic"/>
    </filter>
  </defs>
  <rect class="cls-3" x="15" y="15" width="64" height="64" rx="5" ry="5"/>
  <g>
    <circle class="cls-2" cx="47" cy="36.12" r="3.26"/>
    <path class="cls-2" d="M59.39,30.74c-.63-.23-1.29-.46-1.97-.66.17-.69.31-1.37.43-2.03.6-3.78-.06-6.44-1.89-7.47-.54-.31-1.14-.46-1.83-.46-2,0-4.55,1.49-7.13,3.98-2.58-2.49-5.12-3.98-7.13-3.98-.69,0-1.29.14-1.83.46-1.83,1.06-2.49,3.72-1.89,7.47.11.66.26,1.35.43,2.03-.69.2-1.35.4-1.97.66-3.58,1.37-5.52,3.26-5.52,5.38s1.97,4.01,5.52,5.38c.63.23,1.29.46,1.97.66-.17.69-.31,1.37-.43,2.03-.6,3.78.06,6.44,1.89,7.47.54.31,1.14.46,1.83.46,2.03,0,4.58-1.49,7.13-3.98,2.58,2.49,5.12,3.98,7.13,3.98.69,0,1.29-.14,1.83-.46,1.83-1.06,2.49-3.72,1.89-7.47-.11-.66-.26-1.35-.43-2.03.69-.2,1.35-.4,1.97-.66,3.58-1.37,5.52-3.26,5.52-5.38s-1.95-4.01-5.52-5.38ZM55.16,22.01c1.17.69,1.57,2.81,1.09,5.81-.09.6-.23,1.23-.4,1.89-1.49-.34-3.06-.57-4.72-.72-.97-1.37-1.97-2.6-2.98-3.72,2.12-2.09,4.26-3.52,6.01-3.52.37,0,.72.09,1,.26ZM51.95,38.99c-.52.92-1.12,1.83-1.75,2.75-1.06.09-2.12.11-3.21.11s-2.18-.03-3.21-.11c-.63-.92-1.2-1.83-1.72-2.75-.54-.94-1.06-1.92-1.52-2.86.46-.94.97-1.92,1.52-2.86.52-.92,1.12-1.83,1.75-2.75,1.06-.09,2.12-.11,3.21-.11s2.18.03,3.21.11c.63.92,1.2,1.83,1.72,2.75.54.94,1.06,1.92,1.52,2.86-.49.94-.97,1.89-1.52,2.86ZM54.33,38.04c.43,1,.77,1.97,1.09,2.95-.97.23-2,.4-3.09.54.34-.54.72-1.12,1.03-1.72.34-.6.66-1.2.97-1.77ZM47,45.8c-.69-.74-1.35-1.55-1.97-2.38.66.03,1.32.06,1.97.06s1.32-.03,1.97-.06c-.63.83-1.29,1.63-1.97,2.38ZM41.68,41.51c-1.09-.14-2.12-.31-3.09-.54.31-.94.66-1.95,1.09-2.95.31.57.63,1.17.97,1.75.34.63.69,1.17,1.03,1.75ZM39.67,34.21c-.43-1-.77-1.97-1.09-2.95.97-.23,2-.4,3.09-.54-.34.54-.72,1.12-1.03,1.72-.34.6-.66,1.2-.97,1.77ZM47,26.45c.69.74,1.35,1.55,1.97,2.38-.66-.03-1.32-.06-1.97-.06s-1.32.03-1.97.06c.63-.83,1.29-1.63,1.97-2.38ZM53.35,32.46l-1.03-1.72c1.09.14,2.12.31,3.09.54-.31.94-.66,1.95-1.09,2.95-.31-.6-.63-1.2-.97-1.77ZM37.75,27.82c-.49-3.01-.09-5.12,1.09-5.81.29-.17.63-.26,1-.26,1.72,0,3.86,1.4,6.01,3.52-1,1.09-2,2.35-2.98,3.72-1.66.14-3.23.4-4.72.72-.17-.66-.29-1.29-.4-1.89ZM30.69,36.12c0-1.35,1.63-2.78,4.49-3.84.57-.23,1.2-.43,1.83-.6.46,1.43,1.03,2.95,1.72,4.47-.69,1.52-1.29,3.01-1.72,4.44-3.95-1.14-6.33-2.86-6.33-4.47ZM38.84,50.24c-1.17-.69-1.57-2.81-1.09-5.81.09-.6.23-1.23.4-1.89,1.49.34,3.06.57,4.72.72.97,1.37,1.97,2.6,2.98,3.72-2.12,2.09-4.26,3.52-6.01,3.52-.37,0-.72-.09-1-.26ZM56.25,44.42c.49,3.01.09,5.12-1.09,5.81-.29.17-.63.26-1,.26-1.72,0-3.86-1.4-6.01-3.52,1-1.09,2-2.35,2.98-3.72,1.66-.14,3.23-.4,4.72-.72.17.66.29,1.29.4,1.89ZM58.82,39.96c-.57.23-1.2.43-1.83.6-.46-1.43-1.03-2.95-1.72-4.47.69-1.52,1.29-3.01,1.72-4.44,3.95,1.14,6.33,2.86,6.33,4.47,0,1.35-1.66,2.78-4.49,3.84Z"/>
  </g>
  <text class="cls-1" transform="translate(36.5 68.87)"><tspan x="0" y="0">React</tspan></text>
</svg>