<?xml version="1.0" encoding="utf-8"?>
<!-- Generator: Adobe Illustrator 28.2.0, SVG Export Plug-In . SVG Version: 6.00 Build 0)  -->
<svg version="1.1" id="icon" xmlns="http://www.w3.org/2000/svg" xmlns:xlink="http://www.w3.org/1999/xlink" x="0px" y="0px"
	 viewBox="0 0 94 94" style="enable-background:new 0 0 94 94;" xml:space="preserve">
<style type="text/css">
	.st0{fill:#212529;}
	.st1{fill:#E5E5E5;}
	.st2{font-family:'JetBrainsMono-Bold';}
	.st3{font-size:7px;}
	.st4{fill:#77BC1F;}
</style>
<g>
	<path class="st0" d="M20,15h54c2.8,0,5,2.2,5,5v54c0,2.8-2.2,5-5,5H20c-2.8,0-5-2.2-5-5V20C15,17.2,17.2,15,20,15z"/>
	<text transform="matrix(1 0 0 1 34.4 68.87)" class="st1 st2 st3">Spring</text>
</g>
<path class="st4" d="M60.1,21.6c-0.5,1.1-1,2.1-1.7,3c-3-3-7.1-4.7-11.4-4.7c-8.8,0-16,7.2-16,16.1c0,4.4,1.8,8.6,5,11.6l0.6,0.5
	c2.9,2.4,6.6,3.8,10.3,3.8c8.4,0,15.4-6.6,16-14.9C63.4,33,62.1,27.8,60.1,21.6L60.1,21.6z M38.3,47.8c-0.3,0.3-0.6,0.5-1.1,0.5
	c-0.8,0-1.4-0.6-1.4-1.4s0.6-1.4,1.4-1.4c0.3,0,0.6,0.1,0.9,0.3C38.6,46.3,38.7,47.2,38.3,47.8L38.3,47.8z M60,42.9
	c-4,5.3-12.4,3.5-17.8,3.7c0,0-1,0.1-1.9,0.2c0,0,0.4-0.2,0.8-0.3c3.8-1.3,5.6-1.6,7.9-2.8c4.4-2.2,8.7-7.1,9.6-12.1
	c-1.7,4.9-6.7,9-11.3,10.7c-3.1,1.2-8.8,2.3-8.8,2.3l-0.2-0.1c-3.9-1.9-4-10.2,3-12.9c3.1-1.2,6-0.5,9.3-1.3c3.5-0.8,7.6-3.5,9.3-7
	C61.8,28.9,64.1,37.6,60,42.9L60,42.9L60,42.9z"/>
</svg>
