<?xml version="1.0" encoding="UTF-8"?>
<svg id="icon" xmlns="http://www.w3.org/2000/svg" xmlns:xlink="http://www.w3.org/1999/xlink" viewBox="0 0 94 94">
  <defs>
    <style>
      .cls-1 {
        fill: #e5e5e5;
        filter: url(#drop-shadow-2);
        font-family: JetBrainsMono-Bold, 'JetBrains Mono';
        font-size: 7px;
        font-weight: 700;
      }

      .cls-2 {
        fill: #38b2ac;
      }

      .cls-2, .cls-3 {
        stroke-width: 0px;
      }

      .cls-3 {
        fill: #212529;
        filter: url(#drop-shadow-1);
      }
    </style>
    <filter id="drop-shadow-1" filterUnits="userSpaceOnUse">
      <feOffset dx="0" dy="0"/>
      <feGaussianBlur result="blur" stdDeviation="5"/>
      <feFlood flood-color="#212529" flood-opacity=".75"/>
      <feComposite in2="blur" operator="in"/>
      <feComposite in="SourceGraphic"/>
    </filter>
    <filter id="drop-shadow-2" filterUnits="userSpaceOnUse">
      <feOffset dx="0" dy="0"/>
      <feGaussianBlur result="blur-2" stdDeviation="5"/>
      <feFlood flood-color="#212529" flood-opacity=".75"/>
      <feComposite in2="blur-2" operator="in"/>
      <feComposite in="SourceGraphic"/>
    </filter>
  </defs>
  <rect class="cls-3" x="15" y="15" width="64" height="64" rx="5" ry="5"/>
  <path class="cls-2" d="M47,25.6c-4.27,0-6.93,2.13-8,6.4,1.6-2.13,3.47-2.93,5.6-2.4,1.22.3,2.09,1.19,3.05,2.17,1.57,1.59,3.38,3.43,7.35,3.43,4.27,0,6.93-2.13,8-6.4-1.6,2.13-3.47,2.93-5.6,2.4-1.22-.3-2.09-1.19-3.05-2.17-1.57-1.59-3.38-3.43-7.35-3.43ZM39,35.2c-4.27,0-6.93,2.13-8,6.4,1.6-2.13,3.47-2.93,5.6-2.4,1.22.3,2.09,1.19,3.05,2.17,1.57,1.59,3.38,3.43,7.35,3.43,4.27,0,6.93-2.13,8-6.4-1.6,2.13-3.47,2.93-5.6,2.4-1.22-.3-2.09-1.19-3.05-2.16-1.57-1.59-3.38-3.43-7.35-3.43Z"/>
  <text class="cls-1" transform="translate(30.92 68.87) scale(.96 1)"><tspan x="0" y="0">Tailwind</tspan></text>
</svg>