<?xml version="1.0" encoding="UTF-8"?>
<svg id="icon" xmlns="http://www.w3.org/2000/svg" xmlns:xlink="http://www.w3.org/1999/xlink" viewBox="0 0 94 94">
  <defs>
    <style>
      .cls-1 {
        fill: #e5e5e5;
        filter: url(#drop-shadow-2);
        font-family: JetBrainsMono-Bold, 'JetBrains Mono';
        font-size: 7px;
        font-weight: 700;
      }

      .cls-2 {
        fill: none;
      }

      .cls-2, .cls-3, .cls-4, .cls-5 {
        stroke-width: 0px;
      }

      .cls-3 {
        fill: #fff;
      }

      .cls-6 {
        clip-path: url(#clippath);
      }

      .cls-4 {
        fill: #3178c6;
      }

      .cls-5 {
        fill: #212529;
        filter: url(#drop-shadow-1);
      }
    </style>
    <filter id="drop-shadow-1" filterUnits="userSpaceOnUse">
      <feOffset dx="0" dy="0"/>
      <feGaussianBlur result="blur" stdDeviation="5"/>
      <feFlood flood-color="#212529" flood-opacity=".75"/>
      <feComposite in2="blur" operator="in"/>
      <feComposite in="SourceGraphic"/>
    </filter>
    <clipPath id="clippath">
      <rect class="cls-2" x="31" y="20" width="32" height="32"/>
    </clipPath>
    <filter id="drop-shadow-2" filterUnits="userSpaceOnUse">
      <feOffset dx="0" dy="0"/>
      <feGaussianBlur result="blur-2" stdDeviation="5"/>
      <feFlood flood-color="#212529" flood-opacity=".75"/>
      <feComposite in2="blur-2" operator="in"/>
      <feComposite in="SourceGraphic"/>
    </filter>
  </defs>
  <rect class="cls-5" x="15" y="15" width="64" height="64" rx="5" ry="5"/>
  <g class="cls-6">
    <g>
      <path class="cls-4" d="M58.2,20h-22.4c-2.65,0-4.8,2.15-4.8,4.8v22.4c0,2.65,2.15,4.8,4.8,4.8h22.4c2.65,0,4.8-2.15,4.8-4.8v-22.4c0-2.65-2.15-4.8-4.8-4.8Z"/>
      <path class="cls-3" d="M45.56,37.75h4v-2.56h-11.19v2.56h4v11.44h3.19v-11.44h0ZM50.81,48.56c.51.26,1.12.46,1.81.59s1.44.19,2.19.19,1.44-.07,2.12-.21c.62-.12,1.21-.36,1.75-.69.51-.33.94-.75,1.19-1.31s.44-1.19.44-2c0-.51-.08-1.02-.26-1.5-.16-.43-.42-.81-.75-1.12-.33-.34-.71-.64-1.12-.88-.44-.25-.94-.51-1.5-.75-.41-.17-.75-.33-1.13-.49-.29-.14-.56-.3-.81-.49-.21-.14-.38-.32-.53-.52-.12-.18-.19-.4-.19-.62s.06-.41.17-.58.27-.32.47-.44.45-.22.75-.29c.29-.07.62-.1,1-.1.26,0,.54.02.81.06.6.09,1.19.25,1.75.49.28.12.53.27.75.43v-2.94c-.47-.18-1-.32-1.56-.41-.64-.09-1.29-.14-1.94-.13-.72,0-1.43.08-2.12.24-.63.13-1.22.39-1.75.75-.51.34-.88.75-1.19,1.31-.29.52-.44,1.12-.44,1.88,0,.94.27,1.75.81,2.37.54.69,1.38,1.19,2.44,1.69.43.17.81.35,1.19.52.38.17.69.34.94.53.27.18.48.38.62.59.16.21.24.46.24.75,0,.2-.05.39-.14.56-.11.19-.26.34-.44.45-.2.12-.44.22-.75.3-.35.08-.71.11-1.06.11-.68,0-1.36-.12-2-.36-.69-.24-1.31-.59-1.76-.97v3h0Z"/>
    </g>
  </g>
  <text class="cls-1" transform="translate(26 68.87)"><tspan x="0" y="0">TypeScript</tspan></text>
</svg>