<?xml version="1.0" encoding="UTF-8"?>
<svg id="icon" xmlns="http://www.w3.org/2000/svg" xmlns:xlink="http://www.w3.org/1999/xlink" viewBox="0 0 94 94">
  <defs>
    <style>
      .cls-1 {
        fill: url(#Gradiente_sem_nome_2);
      }

      .cls-1, .cls-2, .cls-3 {
        stroke-width: 0px;
      }

      .cls-4 {
        fill: #e5e5e5;
        filter: url(#drop-shadow-2);
        font-family: JetBrainsMono-Bold, 'JetBrains Mono';
        font-size: 7px;
        font-weight: 700;
      }

      .cls-2 {
        fill: #212529;
        filter: url(#drop-shadow-1);
      }

      .cls-3 {
        fill: url(#Gradiente_sem_nome_5);
      }
    </style>
    <filter id="drop-shadow-1" filterUnits="userSpaceOnUse">
      <feOffset dx="0" dy="0"/>
      <feGaussianBlur result="blur" stdDeviation="5"/>
      <feFlood flood-color="#212529" flood-opacity=".75"/>
      <feComposite in2="blur" operator="in"/>
      <feComposite in="SourceGraphic"/>
    </filter>
    <linearGradient id="Gradiente_sem_nome_5" data-name="Gradiente sem nome 5" x1="296.81" y1="-303.79" x2="315.49" y2="-329.17" gradientTransform="translate(-257.66 -286.96) scale(1 -1)" gradientUnits="userSpaceOnUse">
      <stop offset="0" stop-color="#41d1ff"/>
      <stop offset="1" stop-color="#bd34fe"/>
    </linearGradient>
    <linearGradient id="Gradiente_sem_nome_2" data-name="Gradiente sem nome 2" x1="305.62" y1="-307.65" x2="309" y2="-330.84" gradientTransform="translate(-257.66 -286.96) scale(1 -1)" gradientUnits="userSpaceOnUse">
      <stop offset="0" stop-color="#ffea83"/>
      <stop offset=".08" stop-color="#ffdd35"/>
      <stop offset="1" stop-color="#ffa800"/>
    </linearGradient>
    <filter id="drop-shadow-2" filterUnits="userSpaceOnUse">
      <feOffset dx="0" dy="0"/>
      <feGaussianBlur result="blur-2" stdDeviation="5"/>
      <feFlood flood-color="#212529" flood-opacity=".75"/>
      <feComposite in2="blur-2" operator="in"/>
      <feComposite in="SourceGraphic"/>
    </filter>
  </defs>
  <rect class="cls-2" x="15" y="15" width="64" height="64" rx="5" ry="5"/>
  <g>
    <path class="cls-3" d="M63.02,25.07l-15.01,26.85c-.31.55-1.11.56-1.42,0l-15.31-26.85c-.34-.6.17-1.33.85-1.21l15.03,2.69c.1.02.19.02.29,0l14.71-2.68c.68-.12,1.2.6.86,1.2Z"/>
    <path class="cls-1" d="M54.31,20.34l-11.11,2.18c-.18.04-.32.19-.33.38l-.68,11.54c-.02.27.23.48.5.42l3.09-.71c.29-.07.55.19.49.48l-.92,4.5c-.06.3.22.56.52.47l1.91-.58c.3-.09.58.17.52.47l-1.46,7.07c-.09.44.5.68.74.3l.16-.25,9.05-18.07c.15-.3-.11-.65-.44-.58l-3.18.61c-.3.06-.55-.22-.47-.51l2.08-7.2c.08-.29-.17-.57-.47-.51Z"/>
  </g>
  <text class="cls-4" transform="translate(38.6 68.87)"><tspan x="0" y="0">Vite</tspan></text>
</svg>