<?xml version="1.0" encoding="UTF-8"?>
<svg id="icon" xmlns="http://www.w3.org/2000/svg" xmlns:xlink="http://www.w3.org/1999/xlink" viewBox="0 0 94 94">
  <defs>
    <style>
      .cls-1 {
        fill: #e5e5e5;
        filter: url(#drop-shadow-2);
        font-family: JetBrainsMono-Bold, 'JetBrains Mono';
        font-size: 7px;
        font-weight: 700;
        letter-spacing: 0em;
      }

      .cls-2 {
        fill: none;
      }

      .cls-2, .cls-3, .cls-4 {
        stroke-width: 0px;
      }

      .cls-5 {
        clip-path: url(#clippath);
      }

      .cls-3 {
        fill: #212529;
        filter: url(#drop-shadow-1);
      }

      .cls-4 {
        fill: #00adef;
        fill-rule: evenodd;
      }
    </style>
    <filter id="drop-shadow-1" filterUnits="userSpaceOnUse">
      <feOffset dx="0" dy="0"/>
      <feGaussianBlur result="blur" stdDeviation="5"/>
      <feFlood flood-color="#212529" flood-opacity=".75"/>
      <feComposite in2="blur" operator="in"/>
      <feComposite in="SourceGraphic"/>
    </filter>
    <clipPath id="clippath">
      <rect class="cls-2" x="31" y="20" width="32" height="32"/>
    </clipPath>
    <filter id="drop-shadow-2" filterUnits="userSpaceOnUse">
      <feOffset dx="0" dy="0"/>
      <feGaussianBlur result="blur-2" stdDeviation="5"/>
      <feFlood flood-color="#212529" flood-opacity=".75"/>
      <feComposite in2="blur-2" operator="in"/>
      <feComposite in="SourceGraphic"/>
    </filter>
  </defs>
  <rect class="cls-3" x="15" y="15" width="64" height="64" rx="5" ry="5"/>
  <g class="cls-5">
    <path class="cls-4" d="M62.06,36.94c.52,0,.94.42.94.94v13.18c0,.52-.42.94-.93.94,0,0,0,0,0,0-.04,0-.08,0-.13,0l-15.06-2.06c-.47-.06-.81-.46-.81-.93v-11.12c0-.52.42-.94.94-.94h15.06ZM43.24,36.94c.52,0,.94.42.94.94v10.58c0,.52-.42.94-.94.94-.04,0-.09,0-.13,0l-11.29-1.57c-.47-.06-.81-.46-.81-.93v-9.01c0-.52.42-.94.94-.94h11.29,0ZM43.11,22.61c.27-.04.54.04.74.22.21.18.32.44.32.71v10.57c0,.52-.42.94-.94.94,0,0,0,0,0,0h-11.3c-.52,0-.94-.42-.94-.94,0,0,0,0,0,0v-9.01c0-.47.35-.87.81-.93,0,0,11.3-1.57,11.3-1.57ZM61.93,20.01c.27-.04.54.05.74.22.2.18.32.44.32.71v13.18c0,.52-.42.94-.94.94h-15.06c-.52,0-.94-.42-.94-.94h0v-11.12c0-.47.35-.87.81-.93l15.06-2.06h0Z"/>
  </g>
  <text class="cls-1" transform="translate(34.82 68.87) scale(.96 1)"><tspan x="0" y="0">Windows</tspan></text>
</svg>