<?xml version="1.0" encoding="UTF-8"?>
<svg xmlns="http://www.w3.org/2000/svg" width="200" height="200" font-family="ConsolasFallback,Consolas,monospace" font-size="16px">
  <style>
    @font-face {
    src: local('Consolas'), local('Consolas Bold');
    font-family: 'ConsolasFallback';
    font-display: swap;
    -webkit-size-adjust: 109%;
    size-adjust: 109%;
    }
  </style>

  <rect width="200" height="200" rx="20" ry="20" fill="#ffffff1a" />

  <!-- logo -->
  <g transform="translate(28, 20) scale(1.95)">
    <metadata><sfw xmlns="ns_sfw;"><slices></slices><sliceSourceBounds bottomLeftOrigin="true" height="56" width="74.6" x="-176.8" y="-303.4"></sliceSourceBounds></sfw></metadata><g><g><path fill="#4285F4" d="M5.1,56H17V27.2L0,14.4v36.5C0,53.7,2.3,56,5.1,56"></path><path fill="#34A853" d="M57.7,56h11.9c2.8,0,5.1-2.3,5.1-5.1V14.4l-17,12.7"></path><path fill="#FBBC04" d="M57.7,5.1v22.1l17-12.7V7.6c0-6.3-7.2-9.9-12.2-6.1"></path><path fill="#EA4335" d="M17,27.2V5.1l20.4,15.3L57.7,5.1v22.1L37.3,42.4"></path><path fill="#C5221F" d="M0,7.6v6.8l17,12.7V5.1l-4.8-3.6C7.2-2.2,0,1.4,0,7.6"></path></g></g>
  </g>
  <!-- logo -->

  <text x="100" y="165" text-anchor="middle" fill="#fff">
    Gmail
  </text>
</svg>
