<?xml version="1.0" encoding="UTF-8"?>
<svg xmlns="http://www.w3.org/2000/svg" width="200" height="200" font-family="ConsolasFallback,Consolas,monospace" font-size="16px">
  <style>
    @font-face {
    src: local('Consolas'), local('Consolas Bold');
    font-family: 'ConsolasFallback';
    font-display: swap;
    -webkit-size-adjust: 109%;
    size-adjust: 109%;
    }
  </style>

  <rect width="200" height="200" rx="20" ry="20" fill="#f6f8fa" />

  <!-- logo -->
  <g transform="translate(35, 13) scale(1)">
    <g fill="#1791cf"><path fill-rule="evenodd" d="M61.113 4.886C55.82 17.788 52.629 26.23 46.738 38.749c3.613 3.805 8.047 8.242 15.246 13.25-7.742-3.168-13.02-6.347-16.969-9.648-7.539 15.644-19.351 37.933-43.324 80.77 18.844-10.817 33.45-17.485 47.059-20.032a33.989 33.989 0 0 1-.895-8.023l.024-.602c.296-12.004 6.578-21.238 14.015-20.61 7.438.626 13.223 10.872 12.922 22.876-.055 2.261-.312 4.433-.762 6.449 13.465 2.621 27.914 9.273 46.5 19.941-3.664-6.707-6.933-12.757-10.058-18.52-4.922-3.792-10.055-8.726-20.524-14.073 7.196 1.863 12.348 4.007 16.364 6.406C74.578 38.12 72.004 30.308 61.113 4.886Zm0 0"/><path d="M121.14 112.57v-3.243h-1.215v-.433h2.93v.433h-1.223v3.243h-.492M123.363 112.57v-3.676h.734l.875 2.601c.082.243.14.426.176.543.043-.132.11-.328.2-.586l.882-2.558h.66v3.676h-.472v-3.079l-1.075 3.079h-.441l-1.066-3.13v3.13h-.473"/></g>
  </g>
  <!-- logo -->

  <text x="100" y="165" text-anchor="middle" fill="#1f2328">
    Arch Linux
  </text>
</svg>
