<?xml version="1.0" encoding="UTF-8"?>
<svg xmlns="http://www.w3.org/2000/svg" width="200" height="200" font-family="ConsolasFallback,Consolas,monospace" font-size="16px">
  <style>
    @font-face {
    src: local('Consolas'), local('Consolas Bold');
    font-family: 'ConsolasFallback';
    font-display: swap;
    -webkit-size-adjust: 109%;
    size-adjust: 109%;
    }
  </style>

  <rect width="200" height="200" rx="20" ry="20" fill="#ffffff1a" />

  <!-- logo -->
  <g transform="translate(35, 13) scale(1)">
    <path fill="#1FA6CA" d="M.2 68.6V13.4L48 41v18.4L16.1 41v36.8L.2 68.6zM48 41l47.9-27.6v55.3L64 87l-16-9.2 32-18.4V41L48 59.4V41z"/><path fill="#1FA6CA" d="M48 77.8v18.4l32 18.4V96.2L48 77.8zM80 114.6L127.8 87V50.2l-16 9.2v18.4L80 96.2v18.4zM111.9 41V22.6l16-9.2v18.4l-16 9.2z"/>
  </g>
  <!-- logo -->

  <text x="100" y="165" text-anchor="middle" fill="#fff">
    Material UI
  </text>
</svg>
